<?xml version="1.0" encoding="UTF-8"?>
<svg width="18px" height="18px" viewBox="0 0 18 18" version="1.1" xmlns="http://www.w3.org/2000/svg" xmlns:xlink="http://www.w3.org/1999/xlink">
    <g id="toastify-icon-tips-g" stroke="none" stroke-width="1" fill-rule="evenodd">
        <g id="1200Terms-of-Use" transform="translate(-1351.000000, -94.000000)" fill-rule="evenodd">
            <g id="编组-10" transform="translate(1277.000000, 73.000000)">
                <path d="M83,21 C87.9705627,21 92,25.0294373 92,30 C92,34.9705627 87.9705627,39 83,39 C78.0294373,39 74,34.9705627 74,30 C74,25.0294373 78.0294373,21 83,21 Z M83,22.6363636 C80.3692261,22.6363636 77.9382907,24.0398647 76.6229037,26.3181818 C75.3075168,28.5964988 75.3075168,31.4035012 76.6229037,33.6818182 C77.9382907,35.9601353 80.3692261,37.3636364 83,37.3636364 C87.066824,37.3636364 90.3636363,34.066824 90.3636363,30 C90.3636363,25.933176 87.066824,22.6363636 83,22.6363636 Z M83.022,32.994 C83.33,32.994 83.5773333,33.0873333 83.764,33.274 C83.96,33.4513333 84.058,33.6893333 84.058,33.988 C84.058,34.2773333 83.96,34.52 83.764,34.716 C83.5493333,34.9026667 83.302,34.996 83.022,34.996 C82.742,34.996 82.504,34.898 82.308,34.702 C82.1026667,34.506 82,34.268 82,33.988 C82,33.6893333 82.1026667,33.4513333 82.308,33.274 C82.4946667,33.0873333 82.7326667,32.994 83.022,32.994 Z M83.904,25 L83.582,32.168 L82.476,32.168 L82.154,25 L83.904,25 Z" id="形状结合"></path>
            </g>
        </g>
    </g>
</svg>