<svg xmlns="http://www.w3.org/2000/svg" width="318" height="213" viewBox="0 0 318 213"><g fill="none" fill-rule="evenodd"><path fill="#E3EAF8" d="M311.119811,174.687696 C313.781663,157.191137 306.558102,144.147396 289.449127,135.556473 C263.785664,122.670089 258.652345,111.124943 276.127874,81.1374143 C293.603403,51.1498857 292.166613,1.03424799 195.619811,0.8 C99.07301,0.566623431 115.450247,94.5209281 72.4719174,74.747977 C29.4935877,54.9750258 -17.0650054,110.267044 6.21429118,142.597027 C10.4728455,148.511167 13.9841555,155.110814 17.2325282,159.402116 C22.9590175,166.967165 28.0976602,172.141976 32.6484564,174.92655 L311.119811,174.687696 Z"/><g transform="rotate(-25 91.132 -126.935)"><path fill="#C5D6F1" d="M16.7874403,2.58346511 C24.6195008,2.58346511 30.9914156,8.95537985 30.9914156,16.7874403 C30.9914156,24.6195008 24.6195008,30.9914156 16.7874403,30.9914156 C8.95504099,30.9914156 2.58346511,24.6195008 2.58346511,16.7874403 C2.58346511,8.95537985 8.95537985,2.58346511 16.7874403,2.58346511 M16.7874403,33.5748807 C26.0586373,33.5748807 33.5748807,26.0589761 33.5748807,16.7874403 C33.5748807,12.3063618 31.8158608,8.23835307 28.954192,5.22792494 C25.8959847,2.00977592 21.5778976,3.55271368e-14 16.7874403,3.55271368e-14 C7.53386409,3.55271368e-14 0.0304973584,7.48710148 0.00135543815,16.7339005 C0.00135543815,16.7518601 4.26325641e-14,16.7694808 4.26325641e-14,16.7874403 C4.26325641e-14,26.0589761 7.5162434,33.5748807 16.7874403,33.5748807"/><path fill="#E0E9F8" d="M18.2232899 15.2812775C18.6231441 15.1030373 18.8606846 14.696067 18.8606846 14.1156007 18.8606846 13.562243 18.6231441 13.1817038 18.2232899 13.0156626 18.0752082 12.9539902 17.9047619 12.9224762 17.7156783 12.9224762L15.7455489 12.9224762 15.7455489 15.3819187 17.7156783 15.3819187C17.9047619 15.3819187 18.0752082 15.3466774 18.2232899 15.2812775M18.2232899 20.3845021C18.8156163 20.2235438 19.1683691 19.7616783 19.1683691 19.072438 19.1683691 18.4397872 18.8156163 17.9904595 18.2232899 17.8328898 18.0694476 17.7915489 17.9000179 17.7698619 17.7156783 17.7698619L15.7455489 17.7698619 15.7455489 20.4292316 17.7156783 20.44753C17.899679 20.44753 18.0694476 20.425843 18.2232899 20.3845021"/><path fill="#E0E9F8" d="M15.2831073,8.70032028 L15.2831073,10.3346398 L16.2081938,10.3346398 L16.2081938,8.70032028 L18.2233915,8.70032028 L18.2233915,10.3468388 C20.2307954,10.4776385 21.4872866,11.6938054 21.4872866,13.5368625 C21.4872866,14.8573981 20.8302379,15.9248056 19.7967163,16.2870465 C21.0396531,16.6130293 21.8081866,17.8607101 21.8085254,19.4892691 C21.8085254,21.6007029 20.4195402,22.9408923 18.2233915,23.0123917 L18.2233915,24.8744248 L16.2081938,24.8744248 L16.2081938,23.0157803 L15.2831073,23.0157803 L15.2831073,24.8744248 L13.2682485,24.8744248 L13.2682485,23.0157803 L11.766423,23.0157803 L11.766423,20.4292654 L13.2031875,20.4292654 L13.2031875,12.9225101 L11.766423,12.9225101 L11.766423,10.3346398 L13.2682485,10.3346398 L13.2682485,8.70032028 L15.2831073,8.70032028 Z M2.58332957,16.787542 C2.58332957,24.6196025 8.95490545,30.9915172 16.7873048,30.9915172 C24.6197041,30.9915172 30.99128,24.6196025 30.99128,16.787542 C30.99128,8.95548151 24.6197041,2.58356677 16.7873048,2.58356677 C8.95524431,2.58356677 2.58332957,8.95548151 2.58332957,16.787542 L2.58332957,16.787542 Z"/><path fill="#FFF" d="M15.7453795,17.7697602 L17.7155088,17.7697602 C17.8998484,17.7697602 18.0692782,17.7914473 18.2231204,17.8327881 C18.8157858,17.9903578 19.1685385,18.4396856 19.1685385,19.0723363 C19.1685385,19.7615766 18.8157858,20.2234422 18.2231204,20.3844004 C18.0692782,20.4257413 17.8995096,20.4474283 17.7155088,20.4474283 L15.7453795,20.4291299 L15.7453795,17.7697602 Z M15.7453795,12.9223746 L17.7155088,12.9223746 C17.9045925,12.9223746 18.0753777,12.9538885 18.2231204,13.0155609 C18.6229747,13.1816021 18.8605152,13.5621414 18.8605152,14.115499 C18.8605152,14.6959654 18.6229747,15.1029357 18.2231204,15.2811758 C18.0753777,15.3465757 17.9045925,15.3818171 17.7155088,15.3818171 L15.7453795,15.3818171 L15.7453795,12.9223746 Z M13.2679774,10.3345043 L11.7664908,10.3345043 L11.7664908,12.9223746 L13.2032552,12.9223746 L13.2032552,20.4291299 L11.7664908,20.4291299 L11.7664908,23.0156447 L13.2679774,23.0156447 L13.2679774,24.8742893 L15.2831751,24.8742893 L15.2831751,23.0156447 L16.2082616,23.0156447 L16.2082616,24.8742893 L18.2231204,24.8742893 L18.2231204,23.0122561 C20.4196079,22.9407568 21.8085932,21.6005673 21.8085932,19.4891335 C21.8082543,17.8605746 21.0397209,16.6128938 19.7967841,16.2869109 C20.8303057,15.9246701 21.4870155,14.8572625 21.4870155,13.5367269 C21.4870155,11.6936699 20.2305243,10.477503 18.2231204,10.3467032 L18.2231204,8.70018473 L16.2082616,8.70018473 L16.2082616,10.3345043 L15.2831751,10.3345043 L15.2831751,8.70018473 L13.2679774,8.70018473 L13.2679774,10.3345043 Z"/></g><g transform="translate(27.164 127.236)"><path fill="#C5D6F1" d="M10.0724642,1.55007907 C14.7717005,1.55007907 18.5948493,5.37322791 18.5948493,10.0724642 C18.5948493,14.7717005 14.7717005,18.5948493 10.0724642,18.5948493 C5.37302459,18.5948493 1.55007907,14.7717005 1.55007907,10.0724642 C1.55007907,5.37322791 5.37322791,1.55007907 10.0724642,1.55007907 M10.0724642,20.1449284 C15.6351824,20.1449284 20.1449284,15.6353857 20.1449284,10.0724642 C20.1449284,7.38381709 19.0895165,4.94301184 17.3725152,3.13675496 C15.5375908,1.20586555 12.9467386,3.55271368e-14 10.0724642,3.55271368e-14 C4.52031846,3.55271368e-14 0.018298415,4.49226089 0.000813262889,10.0403403 C0.000813262889,10.0511161 4.26325641e-14,10.0616885 4.26325641e-14,10.0724642 C4.26325641e-14,15.6353857 4.50974604,20.1449284 10.0724642,20.1449284"/><path fill="#E0E9F8" d="M10.9339739 9.16876648C11.1738865 9.06182241 11.3164108 8.81764023 11.3164108 8.46936039 11.3164108 8.13734582 11.1738865 7.90902226 10.9339739 7.80939756 10.8451249 7.7723941 10.7428571 7.75348574 10.629407 7.75348574L9.44732935 7.75348574 9.44732935 9.22915125 10.629407 9.22915125C10.7428571 9.22915125 10.8451249 9.20800641 10.9339739 9.16876648M10.9339739 12.2307013C11.2893698 12.1341263 11.5010215 11.857007 11.5010215 11.4434628 11.5010215 11.0638723 11.2893698 10.7942757 10.9339739 10.6997339 10.8416686 10.6749293 10.7400107 10.6619171 10.629407 10.6619171L9.44732935 10.6619171 9.44732935 12.2575389 10.629407 12.268518C10.7398074 12.268518 10.8416686 12.2555058 10.9339739 12.2307013"/><path fill="#E0E9F8" d="M9.16986438,5.22019217 L9.16986438,6.2007839 L9.72491631,6.2007839 L9.72491631,5.22019217 L10.9340349,5.22019217 L10.9340349,6.20810326 C12.1384772,6.28658313 12.8923719,7.01628326 12.8923719,8.12211747 C12.8923719,8.91443884 12.4981428,9.55488337 11.8780298,9.77222787 C12.6237919,9.9678176 13.0849119,10.7164261 13.0851152,11.6935615 C13.0851152,12.9604217 12.2517241,13.7645354 10.9340349,13.807435 L10.9340349,14.9246549 L9.72491631,14.9246549 L9.72491631,13.8094682 L9.16986438,13.8094682 L9.16986438,14.9246549 L7.9609491,14.9246549 L7.9609491,13.8094682 L7.05985382,13.8094682 L7.05985382,12.2575593 L7.92191248,12.2575593 L7.92191248,7.75350607 L7.05985382,7.75350607 L7.05985382,6.2007839 L7.9609491,6.2007839 L7.9609491,5.22019217 L9.16986438,5.22019217 Z M1.54999774,10.0725252 C1.54999774,14.7717615 5.37294327,18.5949103 10.0723829,18.5949103 C14.7718225,18.5949103 18.594768,14.7717615 18.594768,10.0725252 C18.594768,5.37328891 14.7718225,1.55014006 10.0723829,1.55014006 C5.37314658,1.55014006 1.54999774,5.37328891 1.54999774,10.0725252 L1.54999774,10.0725252 Z"/><path fill="#FFF" d="M9.44722769,10.6618561 L10.6293053,10.6618561 C10.7399091,10.6618561 10.8415669,10.6748684 10.9338723,10.6996729 C11.2894715,10.7942147 11.5011231,11.0638113 11.5011231,11.4434018 C11.5011231,11.856946 11.2894715,12.1340653 10.9338723,12.2306403 C10.8415669,12.2554448 10.7397057,12.268457 10.6293053,12.268457 L9.44722769,12.2574779 L9.44722769,10.6618561 Z M9.44722769,7.75342474 L10.6293053,7.75342474 C10.7427555,7.75342474 10.8452266,7.7723331 10.9338723,7.80933656 C11.1737848,7.90896127 11.3163091,8.13728482 11.3163091,8.4692994 C11.3163091,8.81757923 11.1737848,9.06176141 10.9338723,9.16870548 C10.8452266,9.20794542 10.7427555,9.22909025 10.6293053,9.22909025 L9.44722769,9.22909025 L9.44722769,7.75342474 Z M7.96078645,6.20070257 L7.05989448,6.20070257 L7.05989448,7.75342474 L7.92195314,7.75342474 L7.92195314,12.2574779 L7.05989448,12.2574779 L7.05989448,13.8093868 L7.96078645,13.8093868 L7.96078645,14.9245736 L9.16990505,14.9245736 L9.16990505,13.8093868 L9.72495697,13.8093868 L9.72495697,14.9245736 L10.9338723,14.9245736 L10.9338723,13.8073537 C12.2517648,13.7644541 13.0851559,12.9603404 13.0851559,11.6934801 C13.0849526,10.7163448 12.6238325,9.96773627 11.8780705,9.77214655 C12.4981834,9.55480204 12.8922093,8.91435752 12.8922093,8.12203615 C12.8922093,7.01620193 12.1383146,6.2865018 10.9338723,6.20802193 L10.9338723,5.22011084 L9.72495697,5.22011084 L9.72495697,6.20070257 L9.16990505,6.20070257 L9.16990505,5.22011084 L7.96078645,5.22011084 L7.96078645,6.20070257 Z"/></g><rect width="12.502" height="31.388" x="119.365" y="142.972" fill="#C5D6F1" fill-rule="nonzero" opacity=".5"/><rect width="12.503" height="58.943" x="147.537" y="115.418" fill="#BCD1F3" fill-rule="nonzero"/><rect width="12.502" height="52.847" x="175.712" y="121.512" fill="#C5D6F1" fill-rule="nonzero" opacity=".5"/><rect width="12.503" height="82.686" x="203.885" y="91.675" fill="#BCD1F3" fill-rule="nonzero"/><path fill="#FA968C" fill-rule="nonzero" d="M146.717388,40.186238 C146.653417,39.1166886 144.803336,36.9384711 145.08545,36.6655611 C145.288407,36.4695077 146.00865,37.1428084 146.397535,37.5362958 C146.443097,37.5823178 146.510749,37.597505 146.571498,37.5754145 C146.632247,37.553324 146.674127,37.4980976 146.67919,37.433667 C146.76387,36.3829865 147.026655,33.4421858 147.320275,33.4145726 C147.617577,33.3864992 147.766227,35.2467053 147.807647,35.8712227 C147.809028,35.8900917 147.823295,35.9057392 147.842164,35.9080403 C147.861033,35.9103414 147.878981,35.8992961 147.884964,35.8813476 C148.113693,35.2204728 148.88502,33.0873568 149.215918,33.3611872 C149.530708,33.6216713 149.042415,35.6645843 148.839919,36.4506387 C148.834856,36.4699679 148.844981,36.4902176 148.86385,36.4975811 C148.882259,36.5049446 148.903429,36.4975811 148.913554,36.4800928 C149.311643,35.7759574 150.361864,33.9907671 150.645359,34.2185756 C150.933916,34.4509863 150.120709,36.386208 149.819265,37.0728551 C149.811442,37.0908036 149.817885,37.1119737 149.834452,37.1225588 C149.85102,37.1331438 149.872651,37.1299223 149.885997,37.1151953 C150.340694,36.6015906 151.531281,35.2927272 151.524407,35.6774705 C151.516093,36.1528769 149.424857,40.1070803 148.740051,40.7688756 C148.055245,41.4320514 146.717388,40.186238 146.717388,40.186238 Z"/><g fill-rule="nonzero" transform="translate(114.92 35.312)"><path fill="#FA968C" d="M13.0237434,18.1091656 C14.4412185,21.2497015 16.48091,24.8168605 18.9472248,27.2652267 C23.7459304,32.0146889 29.9045839,30.773938 32.0542678,19.6665474 C32.428426,17.9927301 32.6893703,16.3262764 32.9088949,14.6630442 C33.3557677,11.3402615 33.5283499,8.02760364 33.6816029,4.7250706 C33.7046139,4.22527254 33.3180297,3.80095043 32.8182317,3.77793947 C32.365376,3.75676939 31.9751101,4.07201955 31.8881287,4.50278473 L31.8844469,4.52119349 C31.2341572,7.72754071 30.5801857,10.9274449 29.7416663,14.0403676 C29.3104409,15.5913063 28.863568,17.1293589 28.3430601,18.611725 C27.8915851,20.0158538 26.0778612,24.3782716 24.6672893,24.8053551 C24.6208072,24.7975313 24.5747852,24.8582803 24.5476323,24.8320478 C24.52186,24.8081164 24.5085137,24.8058153 24.492406,24.8200821 C24.4661735,24.7851054 24.448225,24.7699182 24.425214,24.7745204 C24.347437,24.7119306 24.2567738,24.7013455 24.0897142,24.5655809 C23.7822878,24.3640048 23.3616474,23.9663754 22.9621771,23.4702591 C22.1434472,22.5001171 21.3813242,21.2179463 20.7107848,19.8869924 C19.5473506,17.6296172 18.8731295,16.006424 18.8731295,16.006424 C17.4409273,12.0793735 11.500878,13.9598292 12.934921,17.8919421 C12.9611535,17.9632761 12.9929087,18.0405929 13.0237434,18.1091656 Z"/><path fill="#FFBE55" d="M22.5438379,22.3358188 C22.5387755,22.3279951 22.5327926,22.3206316 22.52727,22.3128078 C21.802885,21.2524628 21.1309649,20.1447151 20.5115099,19.0084339 C19.8975774,17.8997659 19.2716793,16.667759 18.8335506,15.6193797 L18.8119203,15.5669147 C18.7764834,15.4831548 18.7373648,15.4003153 18.6945644,15.3183963 C17.8799764,13.7711393 15.9659247,13.1774566 14.4186678,13.9915843 C12.8714108,14.8061723 12.277728,16.720224 13.0918558,18.267481 C13.8558197,19.7185522 14.5953919,20.9054575 15.4398942,22.1544924 C16.0114864,22.978745 16.6198962,23.778606 17.2462546,24.5660411 C17.7129169,24.0680839 21.429187,22.7352891 22.5438379,22.3358188 Z"/><path fill="#FAB9AF" d="M19.4433411,44.3223312 C16.6889291,47.4826565 0.790656598,48.8016448 0.790656598,48.8016448 C-0.382442161,47.4398561 1.33279482,41.250368 1.74653189,34.9674554 C2.19386496,28.1741597 2.45158772,20.6762683 2.56940384,16.6249587 C2.61818707,14.9529823 3.98687899,13.6266305 5.65931559,13.6266305 L15.7482411,13.6266305 C17.3033218,13.6266305 18.5979184,14.8130756 18.7258593,16.3630939 C18.9904854,19.5708218 19.4511648,25.1459173 19.9054012,30.6119408 C20.3660806,36.1575823 21.824055,41.59047 19.4433411,44.3223312 Z"/><path fill="#FA968C" d="M10.2720927,97.1366272 L10.2951037,103.389626 L9.75204501,106.434896 C9.65816029,106.962307 10.047966,107.45014 10.5836611,107.466247 C13.1434003,107.544945 19.6983025,107.717527 19.873646,107.433572 C20.6978986,106.100317 16.9724242,105.587172 14.247006,104.53235 C11.5215879,103.477527 13.4020435,93.1290384 13.4020435,93.1290384 L10.2720927,97.1366272 Z"/><path fill="#0B4870" d="M14.247006,104.53235 C14.232279,104.526827 14.2198531,104.517163 14.2055863,104.51072 C13.556217,104.753255 12.8253889,104.895923 12.0015965,104.895923 C11.29516,104.895923 10.6549951,104.793754 10.0769598,104.612888 L9.75204501,106.434896 C9.65816029,106.962307 10.047966,107.45014 10.5836611,107.466247 C13.1434003,107.544945 19.6983025,107.717527 19.873646,107.433572 C20.6974384,106.100777 16.9719639,105.587172 14.247006,104.53235 Z"/><path fill="#0091C8" d="M19.4391991,46.6013367 C19.537686,50.9476469 17.8284319,78.5207603 14.4518036,78.5973159 C11.0751752,78.6735531 7.31058211,51.2246989 7.21163498,46.8783887 C7.11314807,42.5320785 9.77045377,38.9469709 13.1466219,38.8705745 C16.5237104,38.7941781 19.3407122,42.2550265 19.4391991,46.6013367 Z"/><path fill="#0B4870" d="M9.78840232,72.8692684 C9.45336274,75.2614879 9.39905687,90.5895488 9.93751335,98.3764578 L13.0113174,98.3764578 C14.6621237,90.8228799 16.426144,76.1837672 16.75382,73.8449332 C16.757962,73.8150189 16.7598029,73.7860251 16.7634846,73.7561108 C18.6002195,65.6295601 19.5119137,49.8058431 19.4391991,46.6013367 C19.3407122,42.2550265 16.5232502,38.7941781 13.1470821,38.8705745 C9.77045377,38.9474311 7.11360829,42.5325387 7.2120952,46.8783887 C7.27376457,49.6070284 9.94717795,71.7362087 9.78840232,72.8692684 Z"/><path fill="#FA968C" d="M2.89477881,97.1366272 L2.91778978,103.389626 L2.37473111,106.434896 C2.28084639,106.962307 2.67065206,107.45014 3.20634722,107.466247 C5.76608645,107.544945 12.3209886,107.717527 12.4963321,107.433572 C13.3205847,106.100317 9.59511026,105.587172 6.86969211,104.53235 C4.14427396,103.477527 6.02472965,93.1290384 6.02472965,93.1290384 L2.89477881,97.1366272 Z"/><path fill="#0B4870" d="M6.86969211,104.53235 C6.8549651,104.526827 6.84253918,104.517163 6.82827238,104.51072 C6.17890308,104.753255 5.44807498,104.895923 4.6242826,104.895923 C3.91784611,104.895923 3.2776812,104.793754 2.69964587,104.612888 L2.37473111,106.434896 C2.28084639,106.962307 2.67065206,107.45014 3.20634722,107.466247 C5.76608645,107.544945 12.3205284,107.717527 12.4963321,107.433572 C13.3205847,106.100777 9.59511026,105.587172 6.86969211,104.53235 Z"/><path fill="#0091C8" d="M12.0623454,46.6013367 C12.1608323,50.9476469 10.4515782,78.5207603 7.07494988,78.5973153 C3.69832155,78.6735531 0.664096316,51.1234507 0.565149187,46.7771405 C0.466662276,42.4308303 2.3936001,38.9469709 5.7697682,38.8705745 C9.14639653,38.7941781 11.9633983,42.2550265 12.0623454,46.6013367 Z"/><path fill="#0B4870" d="M2.41108843,72.8692684 C2.07604884,75.2614879 2.02174298,90.5895488 2.56019945,98.3764578 L5.63400354,98.3764578 C7.28480984,90.8228799 9.04883006,76.1837672 9.37650613,73.8449332 C9.38064811,73.8150189 9.38248898,73.7860251 9.38617074,73.7561108 C11.2229056,65.6295601 12.8649677,49.7045948 12.7922531,46.5000885 C12.6937662,42.1537783 9.14639653,38.7941781 5.7697682,38.8705745 C2.39313988,38.9474311 0.466202057,42.4312905 0.565149187,46.7771405 C0.62727878,49.5057801 2.56986405,71.7362087 2.41108843,72.8692684 Z"/><path fill="#FFBE55" d="M15.8435064,13.6270907 L14.2042056,13.6270907 C13.6335338,14.9483801 12.4259186,15.9696065 10.551906,15.9696065 C8.67467184,15.9696065 7.46751686,14.9488403 6.89776548,13.6270907 L5.40159284,13.6270907 C3.87228441,13.6270907 2.62002795,14.8365468 2.57630712,16.365395 C2.46217276,20.3490525 2.20306935,28.0264293 1.74607167,34.9674554 C1.33233461,41.250368 -0.382902381,47.0887089 0.790196379,48.8016448 C0.790196379,48.8016448 16.6884689,47.4821963 19.4428809,44.3223312 C21.8235948,41.59047 20.3656204,36.1575823 19.9044807,30.6119408 C19.4456422,25.0929921 18.9803606,19.4622101 18.7171152,16.2701296 C18.5946969,14.7744172 17.3447415,13.6270907 15.8435064,13.6270907 Z"/><path fill="#0B4870" d="M10.1174591,9.9554619 L10.1174591,9.9554619 C8.57250318,10.2987854 7.04227431,9.32496158 6.69849056,7.7800057 L5.88344235,4.11574037 L8.68019447,3.49398422 L10.1174591,9.9554619 Z"/><polygon fill="#FAB9AF" points="12.616 13.627 7.341 13.627 8.862 8.368 12.458 8.813"/><path fill="#FA968C" d="M12.4576737,8.8127376 L8.86198106,8.36770563 L8.15324348,10.8188331 C8.95816687,11.7263854 10.1519755,13.1351164 11.4603787,13.1351164 C11.8754964,13.1351164 12.2537966,13.0182207 12.5938986,12.8023779 L12.4576737,8.8127376 Z"/><path fill="#FAB9AF" d="M13.002113,11.6081091 L13.002113,11.6081091 C10.633825,12.1345998 8.28670705,10.6416487 7.76021628,8.27336069 L6.69803035,3.49628532 L14.0532537,1.86066626 C14.0532537,1.86066626 14.8825687,5.58982249 14.9065001,8.22595811 C14.9239885,10.20352 14.209268,11.3393411 13.002113,11.6081091 Z"/><polygon fill="#41378C" points="6.78 5.258 8.196 5.258 8.196 5.9 6.78 5.9" transform="rotate(-12.538 7.488 5.579)"/><path fill="#FAB9AF" d="M8.80629453,7.09243821 C9.01339318,8.0243821 8.73542078,8.87946939 8.1849986,9.0018877 C7.63457643,9.12430601 6.75601797,8.03726824 6.54891932,7.10532434 C6.34182068,6.17338045 6.88441912,5.74859812 7.43438108,5.62617981 C7.98480325,5.5037615 8.59873567,6.16003409 8.80629453,7.09243821 Z"/><path fill="#0B4870" d="M14.9999246,3.71166791 C15.0395035,3.07840628 14.9364144,2.44468443 14.6980208,1.85652428 L14.6980208,1.85652428 C14.1066391,0.397629395 12.472861,-0.230109604 10.9863529,0.287176785 C10.8344806,0.340101994 10.6734039,0.386123915 10.5031228,0.42386189 L8.02070035,0.974744281 C6.52866968,1.30610211 5.58798162,2.78386599 5.91979967,4.27589666 L6.04866104,4.8543922 L7.52044207,5.70809883 L8.1201077,6.75279643 L8.21721395,6.73116613 C8.69077951,6.62577593 8.99636507,6.17107935 8.92226978,5.69797401 C8.80031169,4.91790245 9.18781626,4.15623966 9.95868343,3.9845779 L12.1617528,3.49444444 C13.5028315,3.1962224 14.3602199,3.76137158 14.5834262,4.76418924 L14.7035435,5.62802069 L14.9999246,3.71166791 Z"/><path fill="#0B4870" d="M7.57198662,1.96973821 C7.40354639,3.33244728 12.3011992,5.05918975 13.5930345,5.21888581 C14.8848698,5.37858188 16.0680934,4.40291716 16.2365336,3.04020808 C16.4049739,1.67749901 15.4942001,0.443191097 14.2023647,0.283955251 C12.9109896,0.124259186 7.74042685,0.607029135 7.57198662,1.96973821 Z"/><path fill="#FAB9AF" d="M1.97572106,18.7695802 C3.60029486,20.984155 6.3855415,23.8964221 9.71982966,26.4110599 C19.9182873,33.8486625 30.832846,34.6006607 39.7334855,26.1818707 C40.0975189,25.8376267 40.1136266,25.2632732 39.7693826,24.8987796 C39.4748423,24.5876714 39.012322,24.5306042 38.6570328,24.735862 L38.6160733,24.7597934 C32.8113284,28.1101892 27.6140729,29.4853242 21.0706762,26.7364349 C12.4921902,23.0399542 6.40625137,14.1466782 7.0468765,14.9948622 C5.9948154,13.6017787 4.01265127,13.3256472 2.61956773,14.3777083 C1.23844989,15.420565 0.956335513,17.3787977 1.97572106,18.7695802 Z"/><path fill="#FFBE55" d="M11.7263854,20.1014545 C9.60247376,18.1952266 6.90144724,14.4393776 6.90144724,14.4393776 C6.90144724,14.4393776 5.6211174,12.9261769 2.98636244,14.0297825 C0.882240221,14.9111023 1.30840321,17.3972065 1.30840321,17.3972065 C1.35948754,17.7432913 2.06270249,21.8443047 6.9005268,25.4712923 C6.9005268,25.470832 12.0830553,20.4213069 11.7263854,20.1014545 Z"/></g><g fill-rule="nonzero" transform="translate(141.612 10)"><path fill="#FFBE55" d="M19.9353154,0.158775627 C8.93515591,0.171661764 0.00506241128,9.09024979 0.00506241128,20.0922502 C0.00506241128,25.3797086 2.69504368,29.9450832 5.42000161,34.0378126 C11.4405893,43.0815802 8.01977991,47.9810739 11.4948951,47.9810739 L19.9238099,47.9810739 L28.3964455,47.9810739 C31.8747823,47.9810739 28.4438481,43.08112 34.4671971,34.0378126 C37.1907744,29.9460036 39.8743126,25.5228368 39.8743126,20.2372192 C39.8756932,9.23291774 30.9359351,0.171661764 19.9353154,0.158775627 Z"/><path fill="#0B4870" d="M10.2187073,27.5777156 C10.0056258,27.309868 9.61351902,27.2656869 9.34797254,27.4773878 C9.08012496,27.6918499 9.03686436,28.0816556 9.24948563,28.349043 C9.3590178,28.4857281 9.48373721,28.6182712 9.61858144,28.748053 L16.2291701,48.9166996 C16.3161516,49.1776439 16.5573064,49.343783 16.8187109,49.343783 C16.881761,49.343783 16.9466519,49.3336582 17.0115428,49.3124881 C17.3369178,49.205257 17.5131817,48.8573313 17.4054904,48.5301154 L11.3002224,29.8962999 C12.7821283,30.6188441 14.6363515,30.9497417 16.1486318,30.4688126 C16.4758476,30.3643429 16.772689,30.2262771 17.041457,30.0569164 C17.7810293,30.541067 18.68536,30.8296245 19.6449171,30.8296245 C20.7802779,30.8296245 21.8525886,30.4660513 22.665796,29.8171422 C23.1195721,30.0596778 23.6460629,30.2603333 24.2323822,30.4076035 C25.9660279,30.8471128 27.4990181,30.7408022 28.7756662,30.1172052 L22.7380504,48.5310359 C22.6331204,48.8568711 22.8098446,49.2066377 23.131998,49.3124881 C23.1973492,49.3345786 23.2636207,49.3433228 23.3280514,49.3433228 C23.5889957,49.3433228 23.8319914,49.1781041 23.9175922,48.91762 L30.5378455,28.7162979 C30.5921514,28.6504865 30.6561218,28.5957205 30.7099675,28.5266876 C30.9202877,28.2574593 30.8738055,27.8671935 30.6045773,27.6568733 C30.3344286,27.4451724 29.9455434,27.492575 29.7361437,27.7622635 C28.5381931,29.2920321 26.7875192,29.7784838 24.536587,29.2082722 C24.2830063,29.1443018 23.9139105,29.0320083 23.532849,28.8598863 C23.9070072,28.273567 24.0920153,27.6067094 24.0611806,26.9311076 C24.0068747,25.5845062 23.5494168,24.5968758 22.806623,24.2190358 C22.3726363,23.999051 21.891247,24.0266642 21.4894757,24.2935913 C20.8378053,24.7284985 20.5188734,25.7179698 20.6182807,27.0061233 C20.6785694,27.788496 21.0195919,28.483427 21.6040703,29.0536386 C20.5897471,29.6869002 19.0659613,29.7550126 17.9761622,29.1705342 C18.3898993,28.5865161 18.6310542,27.8501653 18.6784568,26.9913963 C18.7456488,25.7883833 18.3742519,24.8140992 17.6862241,24.387476 C17.2467148,24.1141058 16.7197638,24.1007595 16.2747318,24.3557209 C15.5715169,24.7524299 15.1835521,25.7041632 15.2033415,26.9665445 C15.2166879,27.7825131 15.5333187,28.5487781 16.0556675,29.1806591 C15.9650043,29.2216186 15.8706594,29.2570555 15.7707918,29.2883504 C13.9207106,29.8769707 11.2192238,28.8345742 10.2187073,27.5777156 Z M22.1798045,25.3226415 C22.19131,25.3148177 22.1972928,25.3097553 22.2074176,25.3097553 C22.2170822,25.3097553 22.2285877,25.3138973 22.2460761,25.3226415 C22.4274024,25.4146853 22.7794701,25.8799669 22.8241114,26.9817317 C22.8434406,27.3991505 22.7260847,27.8119671 22.493674,28.1852049 C22.1498902,27.8570686 21.8958492,27.4373487 21.8553499,26.9090171 C21.7821751,25.9531418 22.0081427,25.4363156 22.1798045,25.3226415 Z M16.8863632,25.4330941 C16.9089139,25.4192875 16.9296238,25.411924 16.9535552,25.411924 C16.9761059,25.411924 17.0018782,25.4206681 17.0363946,25.4404576 C17.2103575,25.5495295 17.4943127,25.9848969 17.442308,26.9228236 C17.4105528,27.5123644 17.2651236,28.0015775 17.012003,28.3872412 C16.6640773,27.967061 16.4532969,27.4686436 16.4445527,26.9476755 C16.428445,25.9582042 16.7151616,25.5297401 16.8863632,25.4330941 Z"/><path fill="#0B4870" d="M15.9088576.118276336 1.86480823.118276336C1.04976001.118276336.38934545 1.61951139.38934545 2.43594027.38934545 3.25190892 1.05022023 4.75360419 1.86480823 4.75360419L6.57147006 4.75360419 1.41655472 5.7145419C.642926233 5.96490115.217683685 6.44214847.468503153 7.21761783.669618947 7.8421353 1.24949515 8.0625803 1.87355239 8.0625803 2.02312364 8.0625803 2.17683685 7.94798571 2.32870919 7.90150357L16.3672359 3.30299325C17.056184 3.0788665 17.482347 2.23344381 17.3691331 1.51642229 17.2531579.798480325 16.6350835.118276336 15.9088576.118276336ZM15.8918295 10.547764 11.198514 10.547764 16.3474465 8.21997526C17.1215352 7.97007623 17.5467777 6.80894317 17.2950378 6.03255337 17.0432979 5.25892488 16.212142 4.6675432 15.4357522 4.91882289L1.40827077 9.38939227C.716561306 9.6153599.292699416 10.6071323.405913341 11.3241538.517746608 12.0420958 1.1381221 12.8654279 1.86480823 12.8654279L3.14007565 12.8654279 5.37167859 16.3423841 12.3315737 16.3423841 14.5981533 12.8654279 15.8918295 12.8654279C16.7077981 12.8654279 17.3663718 12.5216442 17.3663718 11.706596 17.3663718 10.8910875 16.7077981 10.547764 15.8918295 10.547764Z" transform="translate(11.045 47.863)"/></g><g fill="#BCD1F3" fill-rule="nonzero" transform="translate(113.079 59.704)"><polygon points="7.378 67.468 .282 58.989 34.856 29.927 64.92 34.938 99.03 8.591 100.406 9.827 67.882 46.033 38.385 39.625"/><polygon points="100.893 26.082 81.112 7.113 106.649 .28"/></g><path fill="#FAB9AF" fill-rule="nonzero" d="M152.930347,60.4542919 C153.627579,59.6410846 153.811207,56.7886459 154.203313,56.7886459 C154.485428,56.7886459 154.535592,57.7735151 154.541575,58.3266985 C154.542035,58.3911292 154.580693,58.4495771 154.639601,58.4758096 C154.698509,58.5020421 154.767542,58.491457 154.815865,58.4486566 C155.606982,57.7518847 157.839505,55.8198845 158.069615,56.0039722 C158.302946,56.190361 157.116961,57.6313073 156.712889,58.1094751 C156.700463,58.1237419 156.700463,58.144912 156.711968,58.1600992 C156.723934,58.1748262 156.744184,58.1794284 156.761212,58.1711444 C157.385269,57.8549739 159.422199,56.8572186 159.469602,57.284302 C159.514703,57.6902154 157.74378,58.8200535 157.05207,59.2443756 C157.035042,59.2549607 157.028139,59.2761308 157.036423,59.2945395 C157.044707,59.3129483 157.064956,59.3221527 157.084286,59.3166301 C157.859755,59.0869807 159.855726,58.5328767 159.900827,58.8941488 C159.946849,59.261864 158.01715,60.0879574 157.3236,60.3723729 C157.305191,60.3797364 157.295526,60.3995258 157.299668,60.4183948 C157.30427,60.437724 157.322219,60.4506102 157.341548,60.4487693 C158.025434,60.3953839 159.790835,60.2817097 159.518845,60.5536993 C159.182425,60.8901195 154.93092,62.2799815 153.978726,62.2799815 C153.026993,62.2799815 152.930347,60.4542919 152.930347,60.4542919 Z"/><g transform="translate(44.073 75.382)"><circle cx="13.527" cy="13.527" r="12.4" fill="#FFF"/><path fill="#C5D6F1" d="M2.07187903,13.463436 C2.07187903,7.18231809 7.18231809,2.07187903 13.463436,2.07187903 C19.7445538,2.07187903 24.8549929,7.18231809 24.8549929,13.463436 C24.8549929,19.7445538 19.7449736,24.8549929 13.463436,24.8549929 C7.18189834,24.8549929 2.07187903,19.7445538 2.07187903,13.463436 M13.4970158,26.9260324 C15.7279796,26.9205757 17.8300805,26.3702853 19.6811718,25.4044438 C21.7731988,24.3126777 23.5411798,22.6886704 24.8075613,20.7103953 C25.5656273,19.5262846 26.1461396,18.2179282 26.5050246,16.8193259 C26.7803797,15.7464485 26.9268719,14.6219421 26.9268719,13.463436 C26.9268719,12.5462853 26.8345272,11.6509616 26.6594921,10.78544 C25.4178758,4.63276517 19.9817118,1.0125234e-13 13.463436,1.0125234e-13 C6.02758972,1.0125234e-13 -1.77635684e-14,6.02800947 -1.77635684e-14,13.463436 C-1.77635684e-14,17.9270424 2.17387794,21.8814939 5.51843469,24.3311467 C7.74604044,25.9618699 10.491616,26.9268719 13.463436,26.9268719 C13.4747692,26.9268719 13.4856826,26.9260324 13.4970158,26.9260324"/><path fill="#E0E9F8" d="M8.27916313,8.5705526 C9.16147466,7.7671538 10.5558795,7.7956967 11.4062901,8.63267539 C12.1223812,9.33785302 12.2705525,10.3968787 11.8550013,11.2510671 L12.4741305,11.8701962 C13.082766,12.478412 13.9369543,12.773915 14.7911427,12.6714963 L15.6608618,12.5669789 C15.8619214,11.6389148 16.6325798,10.897219 17.6315814,10.7855659 C18.8173712,10.6529253 19.9318037,11.4920028 20.1286658,12.6689778 C20.3448363,13.959285 19.4394386,15.1538895 18.1550079,15.3083569 C17.1652407,15.4271458 16.2497691,14.8907071 15.837576,14.0415557 L15.7158489,14.0562469 C14.5237629,14.1993812 13.5545634,15.0858902 13.306492,16.2607665 C14.1157672,16.7464156 14.5690957,17.7059609 14.3629992,18.6814566 C14.0956193,19.9465788 12.8254601,20.7424222 11.5594983,20.4129195 C10.40477,20.1119598 9.6681112,18.927849 9.90526916,17.7584294 C10.1050695,16.7732795 10.9118263,16.0710401 11.8541619,15.9535105 L11.9943579,15.291567 C12.1903805,14.3635029 11.9041119,13.3993404 11.2333537,12.7290019 L10.8052101,12.3008583 C9.95647848,12.7134712 8.90500827,12.5699171 8.20025039,11.8651593 C7.28561822,10.9505271 7.31206238,9.45160488 8.27916313,8.5705526 M24.8550349,13.4635619 C24.8550349,7.18244402 19.7445958,2.07200496 13.4634779,2.07200496 C7.18236007,2.07200496 2.07192101,7.18244402 2.07192101,13.4635619 C2.07192101,19.7446798 7.18194032,24.8551188 13.4634779,24.8551188 C19.7450156,24.8551188 24.8550349,19.7446798 24.8550349,13.4635619"/></g><g transform="rotate(-20 182.5 -580.856)"><circle cx="12.4" cy="12.4" r="11.367" fill="#FFF"/><path fill="#C5D6F1" d="M1.89922244,12.341483 C1.89922244,6.58379158 6.58379158,1.89922244 12.341483,1.89922244 C18.0991743,1.89922244 22.7837435,6.58379158 22.7837435,12.341483 C22.7837435,18.0991743 18.0995591,22.7837435 12.341483,22.7837435 C6.58340681,22.7837435 1.89922244,18.0991743 1.89922244,12.341483 M12.3722645,24.6821964 C14.4173146,24.6771944 16.3442405,24.1727615 18.0410741,23.2874068 C19.9587655,22.2866212 21.5794148,20.7979479 22.7402645,18.9845291 C23.4351583,17.8990942 23.9672946,16.6997675 24.2962725,15.4177154 C24.5486814,14.4342445 24.6829659,13.4034469 24.6829659,12.341483 C24.6829659,11.5007615 24.5983166,10.6800481 24.4378677,9.88665331 C23.2997194,4.2467014 18.3165691,1.0125234e-13 12.341483,1.0125234e-13 C5.52529058,1.0125234e-13 -1.77635684e-14,5.52567535 -1.77635684e-14,12.341483 C-1.77635684e-14,16.4331222 1.99272144,20.0580361 5.05856513,22.3035511 C7.10053707,23.7983808 9.61731463,24.6829659 12.341483,24.6829659 C12.3518717,24.6829659 12.3618758,24.6821964 12.3722645,24.6821964"/><path fill="#E0E9F8" d="M7.58923287,7.85633988 C8.39801844,7.11989098 9.67622285,7.14605531 10.4557659,7.91328577 C11.1121828,8.5596986 11.2480064,9.53047214 10.8670846,10.3134782 L11.4346196,10.8810132 C11.9925355,11.4385443 12.7755415,11.709422 13.5585475,11.6155383 L14.35579,11.5197307 C14.5400946,10.6690052 15.2465315,9.98911743 16.162283,9.88676874 C17.2492569,9.76518156 18.27082,10.5343359 18.451277,11.6132297 C18.6494333,12.7960112 17.8194854,13.8910653 16.6420906,14.0326605 C15.734804,14.1415503 14.8956216,13.6498148 14.517778,12.8714261 L14.4061948,12.884893 C13.3134493,13.0160994 12.4250164,13.8287327 12.1976176,14.9057026 C12.9394533,15.350881 13.3550044,16.2304641 13.1660826,17.1246685 C12.9209844,18.2843639 11.7566717,19.013887 10.5962068,18.7118429 C9.53770581,18.4359631 8.86243527,17.3505283 9.07983006,16.2785603 C9.26298036,15.3755062 10.0025074,14.7317868 10.866315,14.6240513 L10.9948281,14.0172697 C11.1745154,13.1665443 10.9121026,12.2827287 10.2972409,11.6682517 L9.90477595,11.2757868 C9.12677194,11.6540152 8.16292425,11.522424 7.51689619,10.876396 C6.67848337,10.0379832 6.70272385,8.66397114 7.58923287,7.85633988 M22.783782,12.3415984 C22.783782,6.58390701 18.0992128,1.89933788 12.3415214,1.89933788 C6.58383006,1.89933788 1.89926092,6.58390701 1.89926092,12.3415984 C1.89926092,18.0992898 6.58344529,22.7838589 12.3415214,22.7838589 C18.0995976,22.7838589 22.783782,18.0992898 22.783782,12.3415984"/></g><path fill="#BCD1F3" d="M318,174.751248 L316.019414,174.751248 L67.1660011,174.751248 L25.2180611,174.751248 L8.10749138,174.751248 C8.04802806,174.751248 8,174.796791 8,174.852635 C8,174.909021 8.04802806,174.954564 8.10749138,174.954564 L25.4336156,174.954564 L317.975986,174.954564 C317.984562,174.885707 317.991995,174.817936 318,174.751248"/><g transform="rotate(-15 526.011 -211.24)"><circle cx="13.129" cy="13.129" r="12.334" fill="#FFF"/><path fill="#C5D6F1" d="M24.4112816,13.2226978 C24.4112816,19.3920144 19.3920144,24.4108989 13.2230805,24.4108989 C7.05376391,24.4108989 2.03449672,19.3920144 2.03449672,13.2226978 C2.03449672,7.05376391 7.05376391,2.03449672 13.2230805,2.03449672 C19.3920144,2.03449672 24.4112816,7.0533812 24.4112816,13.2226978 M13.2230805,3.55271368e-15 C5.92017112,3.55271368e-15 1.42108547e-14,5.92017112 1.42108547e-14,13.2230805 C1.42108547e-14,20.5259899 5.92017112,26.446161 13.2230805,26.446161 C13.336746,26.446161 13.4488806,26.4404203 13.5617806,26.4373587 C14.4163764,26.4159268 15.2503057,26.3145081 16.0562971,26.1384606 C19.081635,25.4775171 21.7185203,23.7821032 23.5788831,21.4402887 C25.3722713,19.1834364 26.4457783,16.3295534 26.4457783,13.2230805 C26.4457783,10.1166076 25.3722713,7.26272464 23.5788831,5.00587228 C21.1566992,1.9571889 17.419517,3.55271368e-15 13.2230805,3.55271368e-15"/><path fill="#E0E9F8" d="M13.2229657,14.5337924 L9.15473769,12.6255906 L13.2229657,6.08312987 L17.2911937,12.6255906 L13.2229657,14.5337924 Z M13.2229657,20.3624954 L9.15473769,13.8200346 L13.2229657,16.4825616 L17.2911937,13.8200346 L13.2229657,20.3624954 Z M13.2229657,2.03442017 C7.0536491,2.03442017 2.03476461,7.05368737 2.03476461,13.2226213 C2.03476461,19.3919379 7.0536491,24.4108223 13.2229657,24.4108223 C19.3918996,24.4108223 24.4111668,19.3919379 24.4111668,13.2226213 C24.4111668,7.05330466 19.3918996,2.03442017 13.2229657,2.03442017 L13.2229657,2.03442017 Z"/></g><g transform="rotate(-15 386.805 -893.552)"><circle cx="10.941" cy="10.941" r="10.278" fill="#FFF"/><path fill="#C5D6F1" d="M20.3427347,11.0189148 C20.3427347,16.160012 16.160012,20.3424157 11.0192338,20.3424157 C5.87813659,20.3424157 1.69541393,16.160012 1.69541393,11.0189148 C1.69541393,5.87813659 5.87813659,1.69541393 11.0192338,1.69541393 C16.160012,1.69541393 20.3427347,5.87781767 20.3427347,11.0189148 M11.0192338,3.55271368e-15 C4.93347594,3.55271368e-15 1.42108547e-14,4.93347594 1.42108547e-14,11.0192338 C1.42108547e-14,17.1049916 4.93347594,22.0384675 11.0192338,22.0384675 C11.113955,22.0384675 11.2074005,22.0336836 11.3014838,22.0311322 C12.013647,22.0132723 12.7085881,21.9287568 13.3802476,21.7820505 C15.9013625,21.2312642 18.0987669,19.8184193 19.6490693,17.8669073 C21.1435594,15.986197 22.0381486,13.6079612 22.0381486,11.0192338 C22.0381486,8.43050636 21.1435594,6.05227053 19.6490693,4.17156023 C17.6305827,1.63099075 14.5162642,3.55271368e-15 11.0192338,3.55271368e-15"/><path fill="#E0E9F8" d="M11.0191381,12.1114937 L7.62894808,10.5213255 L11.0191381,5.06927489 L14.4093281,10.5213255 L11.0191381,12.1114937 Z M11.0191381,16.9687461 L7.62894808,11.5166955 L11.0191381,13.735468 L14.4093281,11.5166955 L11.0191381,16.9687461 Z M11.0191381,1.69535014 C5.87804092,1.69535014 1.69563718,5.87807281 1.69563718,11.018851 C1.69563718,16.1599482 5.87804092,20.342352 11.0191381,20.342352 C16.1599163,20.342352 20.342639,16.1599482 20.342639,11.018851 C20.342639,5.87775388 16.1599163,1.69535014 11.0191381,1.69535014 L11.0191381,1.69535014 Z"/></g><g transform="rotate(-20 487.291 -572.66)"><rect width="29.309" height="21.982" y="11.398" fill="#D4DFF4" rx="4"/><path stroke="#D4DFF4" stroke-width="4" d="M14.6545455,2 C16.3504501,2 17.8858037,2.68740119 18.997181,3.79877856 C20.1085584,4.91015592 20.7959596,6.44550946 20.7959596,8.14141414 L20.7959596,8.14141414 L20.7959596,13.5608911 L8.51313131,13.5608911 L8.51313131,8.14141414 C8.51313131,6.44550946 9.20053251,4.91015592 10.3119099,3.79877856 C11.4232872,2.68740119 12.9586408,2 14.6545455,2 Z"/><circle cx="14.655" cy="20.354" r="4.071" fill="#E3EAF8"/><rect width="3.257" height="6.513" x="13.026" y="22.796" fill="#E3EAF8" rx="1"/></g><path fill="#FFF" d="M253.965935,124.5388 L254.499662,126.061848 L255.033726,124.5388 C255.483572,123.25488 256.552377,122.171193 258,121.530924 C256.552377,120.890317 255.483572,119.806629 255.033726,118.523048 L254.499662,117 L253.965935,118.523048 C253.516428,119.806968 252.447623,120.890655 251,121.530924 C252.447623,122.171193 253.516428,123.25488 253.965935,124.5388"/><g transform="translate(81 183)"><path fill="#C5D6F1" d="M122.426854,5.63671343 C129.623968,5.63671343 135.479679,9.67486974 135.479679,14.6383968 C135.479679,19.6014429 129.624449,23.6395992 122.426854,23.6395992 C115.229259,23.6395992 109.374028,19.6014429 109.374028,14.6383968 C109.374028,9.67486974 115.229739,5.63671343 122.426854,5.63671343 M122.426854,4 C113.906613,4 107,8.76296593 107,14.6383968 L107,19.0377555 C107.000481,24.9131864 113.907094,29.6756713 122.426854,29.6756713 C130.946613,29.6756713 137.852745,24.9131864 137.853226,19.0377555 L137.853226,14.6509018 C137.853226,14.6465731 137.853707,14.6427255 137.853707,14.6383968 C137.853707,8.76296593 130.947094,4 122.426854,4"/><path fill="#E0E9F8" d="M109.374413,14.6383968 C109.374413,19.6014429 115.229162,23.6395992 122.426758,23.6395992 C129.624353,23.6395992 135.479583,19.6014429 135.479583,14.6383968 C135.479583,9.67438878 129.623872,5.63671343 122.426758,5.63671343 C115.229643,5.63671343 109.374413,9.67438878 109.374413,14.6383968"/><path fill="#FFF" d="M120.856088,14.5495562 L121.969535,15.8985545 C122.073717,16.0247765 122.151968,16.1515333 122.205547,16.2773534 C122.41332,16.7612271 122.250013,17.2253643 121.739377,17.5387814 C121.183064,17.8802332 120.610912,17.8675038 120.146043,17.5414298 C120.025729,17.4565705 119.912277,17.3510693 119.808287,17.2250793 L118.709609,15.8670159 L120.856088,14.5495562 Z M124.768599,12.1481467 L125.882046,13.497145 C125.988909,13.6266155 126.059995,13.7591686 126.093715,13.8908846 C126.185681,14.2469324 126.012782,14.5981028 125.566146,14.8722378 C125.097629,15.1598026 124.634899,15.1987668 124.265051,15.013277 C124.128765,14.944513 124.003799,14.8450307 123.896935,14.7155603 L122.783489,13.3665619 L124.768599,12.1481467 Z M125.444384,9.17765081 L124.608642,8.14166042 L122.519873,9.42369914 L123.324519,10.4120072 L117.279828,14.1221001 L116.460883,13.1425683 L114.373208,14.4239355 L115.234193,15.4444324 L113.737709,16.3629396 L114.898233,17.7295362 L116.389751,16.8140768 L116.920215,17.4428189 L115.430977,18.3568792 L116.591306,19.7232461 L118.078285,18.8105721 C119.394678,20.2685201 121.254891,20.5596564 122.930999,19.5308992 C124.223598,18.7371821 124.779869,17.6029285 124.337336,16.5923186 C125.208785,17.1236346 126.426973,17.0534077 127.47581,16.4096554 C128.939661,15.5111775 129.20599,14.0515013 128.192723,12.6025621 L129.507597,11.7955224 L128.390473,10.4026378 L127.080975,11.2063776 L126.566063,10.5680897 L127.877565,9.76311964 L126.760253,8.37000077 L125.444384,9.17765081 Z"/><path fill="#C5D6F1" d="M58.6242565 9.22343888 12.0825331 1.8892505C11.6867014 1.82672545 11.3158798 2.09702605 11.2533547 2.49237675 11.1908297 2.88820842 11.4611303 3.25951102 11.856481 3.32155511L58.3982044 10.6557435C58.7935551 10.7173066 59.1648577 10.4479679 59.2273828 10.0521363 59.2899078 9.65630461 59.0196072 9.28548297 58.6242565 9.22343888M42.7750701 12.5065331.895791583 12.5065331C.53987976 12.5065331.251302605 12.7951102.251302605 13.151022.251302605 13.5069339.53987976 13.795511.895791583 13.795511L42.7750701 13.795511C43.130982 13.795511 43.4195591 13.5064529 43.4195591 13.151022 43.4195591 12.7951102 43.130982 12.5065331 42.7750701 12.5065331"/><g transform="translate(154)"><path fill="#C5D6F1" d="M9.95280884,1.05594415 C14.5961083,1.05594415 18.3739867,3.66120628 18.3739867,6.8634818 C18.3739867,10.065447 14.5964186,12.6707092 9.95280884,12.6707092 C5.30919904,12.6707092 1.531631,10.065447 1.531631,6.8634818 C1.531631,3.66120628 5.30950934,1.05594415 9.95280884,1.05594415 M9.95280884,1.77635684e-15 C4.4558795,1.77635684e-15 -2.84217094e-14,3.07288125 -2.84217094e-14,6.8634818 L-2.84217094e-14,9.70177775 C0.000310298015,13.4923783 4.4561898,16.5649493 9.95280884,16.5649493 C15.4494279,16.5649493 19.9049971,13.4923783 19.9053074,9.70177775 L19.9053074,6.87154955 C19.9053074,6.86875687 19.9056177,6.86627448 19.9056177,6.8634818 C19.9056177,3.07288125 15.4497382,1.77635684e-15 9.95280884,1.77635684e-15"/><path fill="#E0E9F8" d="M13.4206374,7.80368479 C12.689265,7.8638826 12.0121947,7.59051005 11.7074821,7.15795462 L11.6174956,7.16509147 C10.7365596,7.2383218 10.0197712,7.69042601 9.83638503,8.28899088 C10.4346396,8.5366087 10.7697615,9.02563837 10.6174051,9.52304609 C10.4197453,10.1681557 9.4807835,10.5743358 8.54492469,10.4061542 C7.69129485,10.252867 7.14672183,9.64871679 7.32235051,9.0526343 C7.46974206,8.55057211 8.06613485,8.1927985 8.76275389,8.13291098 L8.86639343,7.79530674 C9.01099231,7.32210227 8.79967936,6.83059021 8.30382313,6.4889521 L7.98731915,6.27081259 C7.35989657,6.48088435 6.58260004,6.40765402 6.06160967,6.04863921 C5.3854703,5.58257159 5.40501907,4.81830758 6.1199457,4.36930635 C6.77219213,3.95940268 7.80300213,3.97398668 8.43166591,4.40064645 C8.96134462,4.75997156 9.07056953,5.3002004 8.76337449,5.73523822 L9.22137436,6.0514319 C9.67130648,6.36172991 10.3024526,6.51222445 10.9342194,6.46009438 L11.5774672,6.40641283 C11.7257896,5.93351865 12.2954968,5.55526537 13.0340061,5.49817053 C13.910598,5.43083587 14.7344392,5.85811623 14.879969,6.45823259 C15.0397724,7.11575409 14.3707699,7.72486909 13.4206374,7.80368479 M1.53187924,6.8634818 C1.53187924,10.065447 5.30913698,12.6707092 9.95274678,12.6707092 C14.5963566,12.6707092 18.3739246,10.065447 18.3739246,6.8634818 C18.3739246,3.66089599 14.5960463,1.05594415 9.95274678,1.05594415 C5.30944728,1.05594415 1.53187924,3.66089599 1.53187924,6.8634818"/><path fill="#FFF" d="M14.88,6.45826362 C14.7344702,5.85814726 13.910629,5.4305566 13.0340371,5.49820156 C12.2955278,5.5552964 11.7258207,5.93354968 11.5771879,6.40644386 L10.9342504,6.46012541 C10.3024837,6.51225548 9.67133751,6.36145064 9.22140539,6.05115263 L8.76340552,5.73526925 C9.07060056,5.30023143 8.96137565,4.76000259 8.43169694,4.40067748 C7.80303316,3.97401771 6.77222316,3.95943371 6.11997673,4.36933738 C5.4050501,4.81833861 5.38550133,5.58260262 6.0616407,6.04867024 C6.58263107,6.40768505 7.3599276,6.48091538 7.98735018,6.27084362 L8.30385416,6.48898313 C8.79971039,6.83062124 9.01102334,7.3221333 8.86642446,7.79533777 L8.76278492,8.13263172 C8.06616588,8.19282953 7.46977309,8.55060314 7.32238154,9.05266533 C7.14675286,9.64874782 7.69132588,10.2528981 8.54495572,10.4061853 C9.48081453,10.5743668 10.4197763,10.1681867 10.6174362,9.52307712 C10.7697925,9.0256694 10.4346706,8.53663973 9.83641606,8.28902191 C10.0198022,7.69045704 10.7362803,7.23835283 11.6175267,7.1651225 L11.7075131,7.15798565 C12.0122257,7.59054108 12.6889857,7.86391363 13.4206684,7.80371582 C14.3704907,7.72490012 15.0398035,7.11578512 14.88,6.45826362"/></g></g></g></svg>