<svg xmlns="http://www.w3.org/2000/svg" width="326" height="240" viewBox="0 0 326 240"><g fill="none" fill-rule="evenodd"><path fill="#E0E9F8" d="M270.762228 160.716168C269.651206 161.255808 267.901948 161.483784 266.818341 161.409715 265.721267 161.335647 263.934493 160.434325 263.806557 160.211639 263.341948 159.401218 265.316297 159.744144 266.280144 159.863904 267.243992 159.983663 268.344433 160.023102 268.270365 159.542621 268.196778 159.062621 266.333531 158.971719 266.067078 158.449395 265.801587 157.927551 268.486798 158.291158 268.486798 158.291158 268.486798 158.291158 270.891126 158.035768 271.405756 158.692762 271.728962 157.776529 272.083431 156.901659 272.448962 156.146068 273.05305 154.894605 273.369042 153.532521 273.390204 152.156489 269.125034 148.506469 265.964633 145.46679 263.683431 143.091319L263.683431 192.187431 193.193651 192.187431 193.193651 192.187431 270.211046 192.187431C267.906758 188.761058 269.093291 171.627271 269.892168 165.810036 269.835896 164.657651 270.191327 162.718894 270.762228 160.716168M287.464834 164.93584C288.083832 165.961731 288.555174 167.092954 288.803832 168.256401 289.370886 170.907463 285.854092 184.65576 282.319503 194.565018 281.575455 196.65095 281.353731 198.876361 281.549002 201.082533 281.610084 201.776561 281.637499 202.476361 281.635094 203.146341L309.906998 203.146341C316.205194 180.539687 298.717419 171.435078 288.087198 163.693515 287.872689 163.537202 287.670204 163.38618 287.458581 163.231311L287.889523 164.690068C287.889523 164.690068 287.740425 164.785299 287.464834 164.93584M148.619735 70.9247134 149.072321 69.6333307 149.524906 70.9247134C149.90679 72.0136112 150.812922 72.9327295 152.040337 73.4752545 150.812922 74.0182605 149.906309 74.9368978 149.524906 76.0257956L149.072321 77.3176593 148.619735 76.0257956C148.237852 74.9373788 147.331719 74.0182605 146.104305 73.4752545 147.331719 72.9327295 148.238333 72.0136112 148.619735 70.9247134L148.619735 70.9247134ZM223.849876 56.3130902 224.608834 54.1473186 225.368273 56.3130902C226.007952 58.1383407 227.527792 59.6793427 229.585828 60.5902846 227.527792 61.5007455 226.007952 63.0417475 225.368273 64.867479L224.608834 67.0332505 223.849876 64.867479C223.210196 63.0417475 221.690357 61.5007455 219.632321 60.5902846 221.690357 59.6798236 223.210196 58.1388216 223.849876 56.3130902L223.849876 56.3130902ZM262.007471 87.6742124C262.933323 87.6742124 263.683623 88.424513 263.683623 89.3503647L263.683623 130.394693C317.536449 59.0305251 248.643463 21.8257154 190.349435 30.4647535 194.411158 34.7381002 196.907832 40.5120481 196.907832 46.8722886 196.907832 60.0318878 186.239615 70.6996232 173.080497 70.6996232 159.921379 70.6996232 149.253162 60.0318878 149.253162 46.8722886 149.253162 46.8463166 149.255086 46.8217876 149.255086 46.7962966 141.761218 52.5192625 135.603463 59.6822285 131.456609 68.3429098 127.343423 76.9333707 122.038894 83.0733307 115.421339 87.6742124L115.425186 87.6742124 262.007471 87.6742124ZM62.5818036 201.511022 62.5818036 192.187094 143.704208 192.187094 143.704208 192.186613 73.2134669 192.186613 73.2134669 172.912545 73.2134669 166.030942 58.0660521 166.030942C57.7418838 166.030942 57.4787976 165.768337 57.4787976 165.443687L57.4787976 141.989579C57.4787976 141.665411 57.7418838 141.402325 58.0660521 141.402325L73.2134669 141.402325 73.2134669 106.168497C73.200481 106.168497 73.187976 106.169459 73.17499 106.169459 69.7697796 106.169459 66.6238076 105.063727 64.0718236 103.194709 55.4323046 104.649138 45.9833267 106.181002 35.6758317 108.133707 35.3872545 108.188537 35.1092585 108.251543 34.8245291 108.308778 35.3112625 109.268297 35.6051303 110.248497 35.6508216 111.20513 35.9018838 116.434148 41.2886573 120.161603 41.2886573 120.161603 53.3694589 129.419158 47.9793186 133.063407 45.9241683 145.747335 43.869018 158.430782 51.6769539 161.252585 51.12 172.645611 50.6188377 182.895391 40.6581162 185.113587 38.3086172 185.434389 38.1272946 191.292505 37.5828457 197.06982 36.5478156 202.538838 36.4949098 202.819719 36.2241283 203.003928 35.9432465 202.951022L35.911984 202.943808C35.6493788 202.876954 35.4800802 202.616273 35.5315431 202.346453 36.5545491 196.940922 37.0941884 191.22998 37.275511 185.436794 28.1002004 184.667255 23.5483768 179.17515 23.5478958 179.174669 18.1563126 171.451383 25.7021242 161.603687 19.3683367 153.537956 13.0345491 145.472224 15.8005611 141.931383 16.9928657 138.556954 18.1856513 135.182525 24.1654509 133.36016 17.9600802 122.921844 16.6220441 120.670942 15.4946693 118.606653 14.6197996 116.709739-9.5658517 134.396633-2.92617234 172.207936 28.4955511 203.146293L63.7818036 203.146293C63.0877756 202.923607 62.5818036 202.279599 62.5818036 201.511022M281.630381 203.513315 309.806573 203.513315C309.824369 203.450309 309.83976 203.389226 309.857555 203.326701L281.634709 203.326701C281.634228 203.389707 281.631824 203.45079 281.630381 203.513315M28.6768257 203.326846C28.7398317 203.38889 28.8004329 203.451415 28.8639198 203.513459L274.740313 203.513459C274.747527 203.450934 274.754741 203.387928 274.760994 203.326846L28.6768257 203.326846ZM273.115383 203.146485 274.781435 203.146485C274.821836 202.788168 274.85887 202.464962 274.892537 202.17879 274.694381 201.790172 274.501515 201.410212 274.315864 201.043719L274.315864 201.511214C274.315383 202.279311 273.809411 202.923319 273.115383 203.146485M108.051992 39.7439038C105.218164 36.9600962 101.968305 32.0398557 91.5747174 35.6663086 90.7667014 35.9481523 89.9841764 36.3218597 89.2064609 36.6984529 88.2902285 37.1418998 85.4520721 37.1534429 82.5451383 34.5172906 77.9264609 30.3281122 76.1199679 27.1672305 69.7914709 27.0691142 62.4284248 26.9546453 61.2702685 37.4391343 55.5473026 40.1224208 51.9054589 41.8303166 42.2968016 43.5276313 40.3094669 44.2841844L112.192593 44.6627014C112.192593 44.6627014 109.625218 41.2897154 108.051992 39.7439038"/><g transform="translate(12.547 100.625)"><path fill="#C5D6F1" d="M4.44590609,37.9325413 C3.25360148,41.3069702 0.487589454,44.8478119 6.82137703,52.9130624 C13.1551646,60.9792748 5.60935298,70.8269702 11.0009361,78.5497758 C11.0014171,78.5502568 15.5532408,84.0428419 24.7285514,84.812381 C25.1258259,72.1534632 23.8123189,59.107371 22.09288,48.0034031 C19.4346035,45.8357077 13.0421386,41.878353 12.9767277,41.8379522 C12.733842,41.687892 12.6583309,41.3690143 12.808872,41.1261285 C12.9584512,40.8832427 13.275886,40.804846 13.5206957,40.9582728 C13.7621386,41.107371 18.8689923,44.2692147 21.8572087,46.5095353 C19.3297538,30.7657277 16.080856,19.2784331 16.0140023,19.0456476 C15.9351245,18.7714993 16.093842,18.484365 16.3684712,18.4064492 C16.6426195,18.3266095 16.9297538,18.4858079 17.0081506,18.7609181 C17.0586516,18.9359882 18.9127598,25.4924612 20.9077899,35.447892 C21.7908359,33.2922207 23.3698339,29.1732628 24.1566877,25.4934231 C24.2168079,25.2139842 24.4914371,25.0360283 24.770876,25.0956676 C25.0527197,25.154345 25.2282708,25.4304171 25.1686315,25.709375 C24.1061866,30.6805975 21.6378901,36.4112588 21.2656255,37.2606375 C22.3400945,42.8042047 23.4256255,49.2745854 24.2692327,56.2129421 L27.1675093,50.4875714 C27.2964071,50.2326616 27.6066275,50.1287738 27.8629802,50.2600764 C28.1178901,50.3889742 28.219854,50.7006375 28.0904752,50.9550664 L24.4880704,58.071379 C25.4610564,66.623844 26.0401345,75.8111786 25.7616576,84.8099762 C28.1111566,84.4891746 38.072359,82.2709782 38.5730404,72.0211987 C39.1299943,60.6281726 31.3220584,57.805888 33.3772087,45.1224411 C35.432359,32.4389943 40.8224993,28.7942648 28.7416977,19.5367097 C28.7416977,19.5367097 23.3549241,15.8092548 23.103862,10.5807177 C23.0581706,9.62408443 22.7643029,8.64388403 22.2775694,7.68436499 C19.5812969,2.36829285 10.8907959,-2.30425224 4.75179787,1.23274175 C-0.932691107,4.50761149 -1.10920413,9.18352331 2.07283995,16.084846 C2.94770969,17.9822407 4.07508444,20.0465293 5.41312052,22.2974311 C11.6184913,32.7357478 5.63869166,34.5576315 4.44590609,37.9325413"/><path fill="#99B9EE" d="M24.4880223,58.0714271 L28.0904271,50.9551145 C28.2198059,50.7006856 28.117842,50.3890223 27.8634131,50.2601245 C27.6065794,50.1288219 27.296359,50.2327097 27.1674612,50.4871385 L24.2691846,56.2129902 C23.4255774,49.2746335 22.3400464,42.8042528 21.2655774,37.2602047 C21.637842,36.4113069 24.1061386,30.6806456 25.1690644,25.7094231 C25.2287037,25.4304652 25.0526716,25.154393 24.7708279,25.0952347 C24.4913891,25.0355955 24.2172408,25.2140323 24.1571205,25.4934712 C23.3697858,29.1733109 21.7912688,33.2922688 20.9077418,35.4479401 C18.9127117,25.4925093 17.0586035,18.9360363 17.0081025,18.7609662 C16.9297057,18.485856 16.6425714,18.3266576 16.3684231,18.4064973 C16.0937939,18.4844131 15.9350764,18.7715474 16.0139542,19.0456957 C16.0808079,19.2784812 19.3297057,30.7657758 21.8571606,46.5095834 C18.8689442,44.2692628 13.7620905,41.1074191 13.5206476,40.9583209 C13.275838,40.8048941 12.9584031,40.8832908 12.8088239,41.1261766 C12.6582828,41.3685814 12.7342748,41.6879401 12.9766796,41.8380003 C13.0420905,41.8784011 19.4345554,45.8357558 22.0928319,48.0034512 C23.8122708,59.1074191 25.1257778,72.1535113 24.7285033,84.8124291 C24.5471806,90.6056155 24.0075414,96.3165574 22.9850163,101.722088 C22.9335534,101.991427 23.102371,102.252108 23.3654572,102.319443 L23.3962388,102.326658 C23.6771205,102.379563 23.9479021,102.194874 24.0008079,101.913992 C25.035838,96.4449742 25.5802868,90.6676596 25.7616095,84.8100243 C26.0405674,75.8112267 25.4610083,66.623892 24.4880223,58.0714271"/></g><path fill="#FFF" d="M148.619735 76.0257475 149.072321 77.3176112 149.524906 76.0257475C149.906309 74.9368497 150.812922 74.0182124 152.040337 73.4752064 150.812922 72.9326814 149.90679 72.0135631 149.524906 70.9246653L149.072321 69.6332826 148.619735 70.9246653C148.238333 72.0135631 147.331719 72.9326814 146.104305 73.4752064 147.331719 74.0182124 148.237852 74.9373307 148.619735 76.0257475M223.849635 64.8673347 224.608593 67.0331062 225.368032 64.8673347C226.007711 63.0416032 227.527551 61.5006012 229.586068 60.5901403 227.527551 59.6791984 226.007711 58.1381964 225.368032 56.3129459L224.608593 54.1471743 223.849635 56.3129459C223.210437 58.1386774 221.690597 59.6796794 219.63208 60.5901403 221.690597 61.5006012 223.210437 63.0416032 223.849635 64.8673347"/><path fill="#CCDCF6" d="M88.1185731 94.5878958 101.798573 94.5878958C106.851559 92.7198397 111.38222 90.4852906 115.425186 87.6740681L115.421339 87.6740681 88.2955671 87.6740681C88.4961283 88.6658116 88.6019399 89.6917034 88.6019399 90.7426052 88.6019399 92.0700601 88.4340842 93.3585571 88.1185731 94.5878958M263.683527 143.091511 263.683527 143.091511 263.683527 142.583615C263.635431 142.562934 263.586854 142.543214 263.539238 142.522052 263.295391 142.413836 263.062124 142.292633 262.821643 142.179607 263.095311 142.473475 263.379078 142.774557 263.683527 143.091511M258.471872 136.955495C258.471872 136.955495 258.485339 136.976176 258.505058 137.005996 259.333275 137.420104 260.164377 137.823631 261.003174 138.201186 261.893916 138.596056 262.787062 138.978902 263.683575 139.326156L263.683575 130.406236C262.058405 132.559984 260.324537 134.740184 258.471872 136.955495"/><path fill="#BCD1F3" d="M262.007663 87.6740681 115.424898 87.6740681C111.381932 90.4852906 106.851752 92.7198397 101.798285 94.5878958L256.596842 94.5878958 256.596842 102.273186C258.850629 105.109419 260.199727 108.695952 260.199727 112.59992 260.199727 116.503888 258.850629 120.090421 256.596842 122.926653L256.596842 136.019399C257.229307 136.357034 257.8661 136.686493 258.505299 137.006333 258.485579 136.976032 258.471631 136.955351 258.471631 136.955351 260.324297 134.74004 262.058164 132.55984 263.683335 130.406573L263.683335 130.39503 263.683335 89.3502204C263.683335 88.4243687 262.933515 87.6740681 262.007663 87.6740681M263.683527 192.186758 263.683527 143.091607C263.379078 142.774653 263.095311 142.473571 262.821643 142.179703 261.781323 141.692008 260.764088 141.174493 259.778597 140.613691 258.695952 139.998541 257.638798 139.35309 256.597034 138.689363L256.597034 186.202629 80.299479 186.202629 80.299479 172.912689 73.2134669 172.912689 73.2134669 192.186758 143.703727 192.186758 193.193747 192.186758 263.683527 192.186758ZM80.2994309 104.424818C78.1783888 105.531511 75.7702124 106.162052 73.2134188 106.168305L73.2134188 141.402613 80.2994309 141.402613 80.2994309 104.424818ZM191.568385 194.039663C190.667062 195.06796 189.366541 195.656657 187.999647 195.656657L149.224016 195.656657C147.997082 195.656657 146.817764 195.181467 145.933275 194.330645L143.704016 192.186998 62.5816112 192.186998 62.5816112 201.510926C62.5816112 202.279503 63.0875832 202.923511 63.7820922 203.146677L273.115479 203.146677C273.809507 202.923511 274.31596 202.279503 274.31596 201.510926L274.31596 201.043912C273.078926 198.602549 272.141531 196.713331 271.800048 195.992369 271.242613 194.814493 270.637082 193.455295 270.21095 192.186998L193.193555 192.186998 191.568385 194.039663Z"/><path fill="#F0F4FC" d="M149.224257,195.656802 L187.999888,195.656802 C189.366301,195.656802 190.667303,195.067623 191.568625,194.039808 L193.193796,192.187142 L193.193796,192.186661 L143.703776,192.186661 L143.703776,192.187142 L145.933034,194.33079 C146.817523,195.181611 147.996842,195.656802 149.224257,195.656802"/><path fill="#FBFBFB" d="M101.798525,94.5878958 L88.1185251,94.5878958 C87.7073026,96.1904609 87.0421323,97.6896192 86.173515,99.0464128 C91.8551182,97.7704208 97.0557595,96.341002 101.798525,94.5878958"/><path fill="#ECF0F7" d="M105.769731,104.563142 C105.769731,104.294766 105.987126,104.077371 106.255503,104.077371 L172.534942,104.077371 C172.803319,104.077371 173.020713,104.294766 173.020713,104.563142 L173.020713,126.538774 C173.020713,126.80715 172.802838,127.024545 172.534942,127.024545 L167.620954,127.024545 L167.620954,132.940377 C167.621435,133.214044 167.39923,133.436248 167.125082,133.436248 L98.0228778,133.436248 C97.7492104,133.436248 97.527006,133.214044 97.527006,132.940377 L97.527006,110.985427 C97.527006,110.71176 97.7487295,110.489555 98.0228778,110.489555 L105.769731,110.489555 L105.769731,104.563142 Z M174.030253,140.576609 C174.030253,140.219735 174.319792,139.930196 174.677627,139.930196 L241.66889,139.930196 C242.025764,139.930196 242.315303,140.219735 242.315303,140.576609 L242.315303,179.36186 C242.315303,179.719214 242.025764,180.008754 241.66889,180.008754 L174.677627,180.008754 C174.319792,180.008754 174.030253,179.719214 174.030253,179.36186 L174.030253,140.576609 Z M148.485403,141.402421 C148.80909,141.402421 149.072176,141.665507 149.072176,141.989675 L149.072176,165.443784 C149.072176,165.767952 148.80909,166.031038 148.485403,166.031038 L137.795062,166.031038 L137.795062,172.418693 C137.795062,172.69188 137.574301,172.912641 137.302076,172.912641 L80.2994309,172.912641 L80.2994309,186.202581 L256.596986,186.202581 L256.596986,138.689315 C255.305122,137.865908 254.038749,137.011719 252.794982,136.129635 C250.700874,134.643463 248.673138,133.08178 246.739671,131.37677 C246.350092,131.56723 245.925403,131.508072 245.329491,130.96218 C244.84901,130.521619 244.387287,129.874244 244.008289,129.206669 C243.866405,129.210517 243.725002,129.217731 243.582156,129.217731 C234.404441,129.217731 226.964441,121.777731 226.964441,112.600016 C226.964441,103.422301 234.404441,95.9823006 243.582156,95.9823006 C248.856385,95.9823006 253.552978,98.4419399 256.596986,102.273283 L256.596986,94.587992 L101.798429,94.587992 C97.0556633,96.3410982 91.855022,97.7700361 86.1734188,99.0460281 C84.7223567,101.312802 82.6965451,103.174124 80.2994309,104.424625 L80.2994309,141.402421 L148.485403,141.402421 Z"/><path fill="#ECF0F7" d="M247.142958,128.831038 C247.353138,129.37212 247.556104,130.039214 247.508489,130.499014 C248.44396,131.155046 249.404441,131.786549 250.377908,132.395928 C251.522116,133.115447 252.676425,133.820537 253.846124,134.495327 C254.754661,135.020056 255.673299,135.525547 256.596745,136.019495 L256.596745,122.926749 C254.25879,125.869756 250.944962,128.000417 247.142958,128.831038"/><path fill="#BCD1F3" d="M323.024985,203.152434 L73.3688191,203.152434 L73.3688191,203.152434 L31.2855631,203.152434 L14.119798,203.152434 C14.0601429,203.152434 14.0119599,203.194434 14.0119599,203.245934 C14.0119599,203.297934 14.0601429,203.339934 14.119798,203.339934 L31.501813,203.339934 L325.01196,203.339934 C325.009884,203.230832 325.009884,203.168332 325.01196,203.152434 L323.024985,203.152434 Z"/><path fill="#C5D6F1" d="M173.080449,26.7116633 C184.196922,26.7116633 193.24093,35.7556713 193.24093,46.8721443 C193.24093,57.9886172 184.196922,67.0326253 173.080449,67.0326253 C161.963495,67.0326253 152.919968,57.9886172 152.919968,46.8721443 C152.919968,35.7556713 161.963976,26.7116633 173.080449,26.7116633 M173.080449,70.699479 C186.239567,70.699479 196.907784,60.0317435 196.907784,46.8721443 C196.907784,40.5119038 194.41111,34.7379559 190.349387,30.4650902 C186.008705,25.8973948 179.879808,23.0448096 173.080449,23.0448096 C159.946341,23.0448096 149.296401,33.6716633 149.255038,46.7961523 C149.255038,46.8216433 149.253114,46.8466533 149.253114,46.8721443 C149.253114,60.0317435 159.921331,70.699479 173.080449,70.699479"/><path fill="#E0E9F8" d="M175.118429 44.7343647C175.685964 44.4813788 176.023118 43.9037435 176.023118 43.0798557 176.023118 42.2944449 175.685964 41.7543246 175.118429 41.5186533 174.908248 41.4311182 174.666325 41.3863888 174.397948 41.3863888L171.601635 41.3863888 171.601635 44.8772104 174.397948 44.8772104C174.666325 44.8772104 174.908248 44.8271904 175.118429 44.7343647M175.118429 51.9776513C175.95915 51.7491944 176.459832 51.0936433 176.459832 50.1153667 176.459832 49.2174108 175.95915 48.5796553 175.118429 48.356008 174.900072 48.2973307 174.659591 48.2665491 174.397948 48.2665491L171.601635 48.2665491 171.601635 52.0411383 174.397948 52.0671102C174.65911 52.0671102 174.900072 52.0363287 175.118429 51.9776513"/><path fill="#E0E9F8" d="M170.945267,35.3936513 L170.945267,37.7133307 L172.258293,37.7133307 L172.258293,35.3936513 L175.118573,35.3936513 L175.118573,37.7306453 C177.967792,37.9162966 179.751198,39.6424689 179.751198,42.2584208 C179.751198,44.1327295 178.818613,45.6477595 177.351679,46.1619078 C179.115848,46.6245932 180.206669,48.395495 180.20715,50.706998 C180.20715,53.7038717 178.235687,55.6060762 175.118573,55.7075591 L175.118573,58.3504449 L172.258293,58.3504449 L172.258293,55.7123687 L170.945267,55.7123687 L170.945267,58.3504449 L168.085467,58.3504449 L168.085467,55.7123687 L165.953844,55.7123687 L165.953844,52.0411864 L167.993122,52.0411864 L167.993122,41.3864369 L165.953844,41.3864369 L165.953844,37.7133307 L168.085467,37.7133307 L168.085467,35.3936513 L170.945267,35.3936513 Z M152.919776,46.8722886 C152.919776,57.9887615 161.963303,67.0327695 173.080257,67.0327695 C184.19721,67.0327695 193.240737,57.9887615 193.240737,46.8722886 C193.240737,35.7558156 184.19721,26.7118076 173.080257,26.7118076 C161.963784,26.7118076 152.919776,35.7558156 152.919776,46.8722886 L152.919776,46.8722886 Z"/><path fill="#FFF" d="M171.601395,48.2664048 L174.397707,48.2664048 C174.659351,48.2664048 174.899832,48.2971864 175.118188,48.3558637 C175.959391,48.579511 176.460072,49.2172665 176.460072,50.1152224 C176.460072,51.093499 175.959391,51.7490501 175.118188,51.977507 C174.899832,52.0361844 174.65887,52.0669659 174.397707,52.0669659 L171.601395,52.040994 L171.601395,48.2664048 Z M171.601395,41.3862445 L174.397707,41.3862445 C174.666084,41.3862445 174.908489,41.4309739 175.118188,41.518509 C175.685723,41.7541804 176.022878,42.2943006 176.022878,43.0797114 C176.022878,43.9035992 175.685723,44.4812345 175.118188,44.7342204 C174.908489,44.8270461 174.666084,44.8770661 174.397707,44.8770661 L171.601395,44.8770661 L171.601395,41.3862445 Z M168.085082,37.7131383 L165.95394,37.7131383 L165.95394,41.3862445 L167.993218,41.3862445 L167.993218,52.040994 L165.95394,52.040994 L165.95394,55.7121764 L168.085082,55.7121764 L168.085082,58.3502525 L170.945363,58.3502525 L170.945363,55.7121764 L172.258389,55.7121764 L172.258389,58.3502525 L175.118188,58.3502525 L175.118188,55.7073667 C178.235784,55.6058838 180.207246,53.7036794 180.207246,50.7068056 C180.206766,48.3953026 179.115944,46.6244008 177.351776,46.1617154 C178.818709,45.6475671 179.750814,44.1325371 179.750814,42.2582285 C179.750814,39.6422766 177.967407,37.9161042 175.118188,37.7304529 L175.118188,35.3934589 L172.258389,35.3934589 L172.258389,37.7131383 L170.945363,37.7131383 L170.945363,35.3934589 L168.085082,35.3934589 L168.085082,37.7131383 Z"/><path fill="#C5D6F1" d="M60.1222605,90.742509 C60.1222605,83.5453948 65.9779719,77.6896834 73.1750862,77.6896834 C80.3722004,77.6896834 86.2279118,83.5453948 86.2279118,90.742509 C86.2279118,97.9396232 80.3726814,103.795335 73.1750862,103.795335 C65.977491,103.795335 60.1222605,97.9396232 60.1222605,90.742509 M73.2135631,106.168401 C75.7698758,106.162148 78.1785331,105.531607 80.2995752,104.424914 C82.6966894,103.173932 84.722501,101.31309 86.1735631,99.0463166 C87.0421804,97.689523 87.7073507,96.1903647 88.1185731,94.5877996 C88.4340842,93.3584609 88.6019399,92.0699639 88.6019399,90.742509 C88.6019399,89.6916072 88.4961283,88.6657154 88.2955671,87.6739719 C86.8728818,80.6240321 80.6439439,75.3156553 73.1750862,75.3156553 C64.6548457,75.3156553 57.7482325,82.2227495 57.7482325,90.742509 C57.7482325,95.8570581 60.2391343,100.3882 64.0714389,103.195094 C66.6239038,105.063631 69.7698758,106.169363 73.1750862,106.169363 C73.1880721,106.169363 73.2005772,106.168401 73.2135631,106.168401"/><path fill="#E0E9F8" d="M67.2347735,85.1360802 C68.2457555,84.215519 69.843511,84.2482244 70.8179399,85.2072625 C71.6384609,86.0152786 71.8082405,87.2287455 71.3320882,88.207503 L72.041507,88.9169218 C72.7389018,89.6138357 73.7176593,89.9524329 74.6964168,89.8350782 L75.6929699,89.7153186 C75.9233507,88.6519118 76.8063968,87.8020521 77.9510862,87.6741162 C79.3098036,87.5221323 80.5867575,88.4835752 80.8123287,89.8321924 C81.060024,91.3106693 80.0225892,92.679487 78.5508457,92.856481 C77.4167375,92.9925932 76.3677595,92.3779238 75.8954549,91.4049379 L75.755976,91.4217715 C74.3900441,91.5857796 73.279503,92.6015711 72.9952545,93.9477836 C73.9225491,94.5042565 74.441988,95.6037355 74.2058357,96.721491 C73.8994629,98.1711102 72.4440721,99.083014 70.993491,98.7054589 C69.6703647,98.3606092 68.8262766,97.0038156 69.09802,95.6638557 C69.3269579,94.5350381 70.2513667,93.7303888 71.3311263,93.5957194 L71.4917675,92.8372425 C71.7163768,91.7738357 71.3883607,90.6690661 70.6197836,89.9009699 L70.1292024,89.4103888 C69.1566974,89.8831743 67.9518878,89.7186854 67.1443527,88.9111503 C66.0963367,87.8631343 66.1266373,86.1456192 67.2347735,85.1360802 M86.2279599,90.7426533 C86.2279599,83.5455391 80.3722485,77.6898277 73.1751343,77.6898277 C65.97802,77.6898277 60.1223086,83.5455391 60.1223086,90.7426533 C60.1223086,97.9397675 65.9775391,103.795479 73.1751343,103.795479 C80.3727295,103.795479 86.2279599,97.9397675 86.2279599,90.7426533"/><path fill="#FFF" d="M70.1292505,89.4102445 L70.6198317,89.9008257 C71.3884088,90.6689218 71.7164248,91.7736914 71.4918156,92.8370982 L71.3311743,93.5955752 C70.2514148,93.7302445 69.327006,94.5348938 69.0975872,95.6637114 C68.8263246,97.0036713 69.6704128,98.3604649 70.9935391,98.7053146 C72.4436393,99.0828697 73.899511,98.1709659 74.2058838,96.7213467 C74.4420361,95.6035912 73.9225972,94.5041122 72.9948216,93.9476393 C73.2795511,92.6014269 74.3900922,91.5856353 75.756024,91.4216273 L75.895503,91.4047936 C76.3678076,92.3777796 77.4167856,92.9924489 78.5508938,92.8563367 C80.0226373,92.6793427 81.0600721,91.3105251 80.8123768,89.8320481 C80.5868056,88.4834309 79.3098517,87.521988 77.9511343,87.6739719 C76.8064449,87.8019078 75.9233988,88.6517675 75.693018,89.7151743 L74.6964649,89.8349339 C73.7177074,89.9522886 72.7389499,89.6136914 72.0415551,88.9167776 L71.3321363,88.2073587 C71.8082886,87.2286012 71.638509,86.0151343 70.817988,85.2071182 C69.8435591,84.2480802 68.2458036,84.2153747 67.2348216,85.1359359 C66.1266854,86.1454749 66.0963848,87.86299 67.1444008,88.911006 C67.9519359,89.7185411 69.1567455,89.8830301 70.1292505,89.4102445"/><path fill="#C5D6F1" d="M175.664224,215.768465 C182.861339,215.768465 188.71705,219.806621 188.71705,224.770148 C188.71705,229.733194 182.86182,233.771351 175.664224,233.771351 C168.466629,233.771351 162.611399,229.733194 162.611399,224.770148 C162.611399,219.806621 168.46711,215.768465 175.664224,215.768465 M175.664224,214.131752 C167.143984,214.131752 160.237371,218.894717 160.237371,224.770148 L160.237371,229.169507 C160.237852,235.044938 167.144465,239.807423 175.664224,239.807423 C184.183984,239.807423 191.090116,235.044938 191.090597,229.169507 L191.090597,224.782653 C191.090597,224.778325 191.091078,224.774477 191.091078,224.770148 C191.091078,218.894717 184.184465,214.131752 175.664224,214.131752"/><path fill="#E0E9F8" d="M181.039359,226.227463 C179.905731,226.32077 178.856273,225.897042 178.383968,225.226581 L178.244489,225.237643 C176.879038,225.35115 175.768016,226.051912 175.483768,226.979687 C176.411062,227.363495 176.930501,228.121491 176.694349,228.892473 C176.387976,229.892393 174.932585,230.521972 173.482004,230.261291 C172.158878,230.023695 171.31479,229.087263 171.587014,228.163335 C171.815471,227.385138 172.73988,226.830589 173.819639,226.737764 L173.980281,226.214477 C174.204409,225.48101 173.876874,224.719166 173.108297,224.189627 L172.617715,223.851511 C171.64521,224.177122 170.440401,224.063615 169.632866,223.507142 C168.58485,222.784737 168.61515,221.600128 169.723287,220.904176 C170.734269,220.268826 172.332024,220.291431 173.306453,220.952754 C174.127455,221.509707 174.296754,222.347062 173.820601,223.021371 L174.530501,223.511471 C175.227896,223.992433 176.206172,224.225699 177.185411,224.144898 L178.182445,224.061691 C178.412345,223.328705 179.295391,222.742413 180.44008,222.653916 C181.798798,222.549547 183.075752,223.211832 183.301323,224.142012 C183.549018,225.16117 182.512064,226.105299 181.039359,226.227463 M162.611784,224.770148 C162.611784,229.733194 168.466533,233.771351 175.664128,233.771351 C182.861723,233.771351 188.716954,229.733194 188.716954,224.770148 C188.716954,219.80614 182.861242,215.768465 175.664128,215.768465 C168.467014,215.768465 162.611784,219.80614 162.611784,224.770148"/><path fill="#FFF" d="M183.301371,224.14206 C183.0758,223.21188 181.798846,222.549114 180.440128,222.653964 C179.295439,222.742461 178.412393,223.328754 178.182012,224.061739 L177.185459,224.144946 C176.20622,224.225747 175.227944,223.992 174.530549,223.511038 L173.820649,223.021419 C174.296802,222.34711 174.127503,221.509756 173.306501,220.952802 C172.332072,220.291479 170.734317,220.268874 169.723335,220.904224 C168.615198,221.600176 168.584898,222.784786 169.632914,223.50719 C170.440449,224.063663 171.645259,224.17717 172.617764,223.851559 L173.108345,224.189675 C173.876922,224.719214 174.204457,225.481058 173.980329,226.214525 L173.819687,226.737331 C172.739928,226.830637 171.815519,227.385186 171.587062,228.163383 C171.314838,229.087311 172.158926,230.023743 173.482052,230.261339 C174.932633,230.52202 176.388024,229.892441 176.694397,228.892521 C176.930549,228.121539 176.41111,227.363543 175.483816,226.979735 C175.768064,226.05196 176.878605,225.351198 178.244537,225.237691 L178.384016,225.226629 C178.856321,225.89709 179.905299,226.320818 181.039407,226.227511 C182.511631,226.105347 183.549066,225.161218 183.301371,224.14206"/><path fill="#F7F7F7" d="M97.5271503,110.985427 L97.5271503,132.940377 C97.5271503,133.214044 97.7493547,133.436248 98.023022,133.436248 L167.125226,133.436248 C167.398894,133.436248 167.620618,133.214044 167.620618,132.940377 L167.620618,127.024545 L106.255647,127.024545 C105.987271,127.024545 105.769876,126.80715 105.769876,126.538774 L105.769876,110.489555 L98.023022,110.489555 C97.7488737,110.489555 97.5271503,110.71176 97.5271503,110.985427"/><path fill="#C5D6F1" d="M162.071423,112.600016 L114.606733,112.600016 C114.195511,112.600016 113.862204,112.26719 113.862204,111.855006 C113.862204,111.442822 114.19503,111.109996 114.606733,111.109996 L162.071423,111.109996 C162.483126,111.109996 162.816433,111.442822 162.816433,111.855006 C162.816433,112.266709 162.483126,112.600016 162.071423,112.600016 M136.538597,119.992401 L114.606733,119.992401 C114.195511,119.992401 113.862204,119.659575 113.862204,119.247391 C113.862204,118.835687 114.19503,118.502381 114.606733,118.502381 L136.538597,118.502381 C136.950782,118.502381 137.283607,118.835206 137.283607,119.247391 C137.283607,119.659575 136.950782,119.992401 136.538597,119.992401 M106.255792,127.024545 L167.620762,127.024545 L172.53523,127.024545 C172.802645,127.024545 173.021002,126.80715 173.021002,126.538774 L173.021002,104.563142 C173.021002,104.294766 172.803126,104.077371 172.53523,104.077371 L106.255792,104.077371 C105.987415,104.077371 105.769539,104.294766 105.769539,104.563142 L105.769539,110.489555 L105.769539,126.538774 C105.769539,126.80715 105.987415,127.024545 106.255792,127.024545"/><path fill="#FFF" d="M162.071423 111.1099 114.606733 111.1099C114.19503 111.1099 113.862204 111.442725 113.862204 111.85491 113.862204 112.267094 114.195511 112.59992 114.606733 112.59992L162.071423 112.59992C162.483126 112.59992 162.816433 112.266613 162.816433 111.85491 162.816433 111.442725 162.483126 111.1099 162.071423 111.1099M136.538405 118.502333 114.607022 118.502333C114.194838 118.502333 113.862012 118.835639 113.862012 119.247343 113.862012 119.659527 114.195319 119.992353 114.607022 119.992353L136.538405 119.992353C136.950589 119.992353 137.283415 119.659527 137.283415 119.247343 137.283415 118.835158 136.950589 118.502333 136.538405 118.502333"/><path fill="#F7F7F7" d="M137.302124,172.912593 C137.574349,172.912593 137.79511,172.691832 137.79511,172.419126 L137.79511,166.03099 L73.2134669,166.03099 L73.2134669,172.912593 L80.299479,172.912593 L137.302124,172.912593 Z"/><path fill="#C5D6F1" d="M79.5260922,160.597804 L64.787976,160.597804 C64.4993988,160.597804 64.2651703,160.364056 64.2651703,160.074998 L64.2651703,146.78602 C64.2651703,146.497924 64.4993988,146.263214 64.787976,146.263214 L79.5260922,146.263214 C79.8146693,146.263214 80.0488978,146.497924 80.0488978,146.78602 L80.0488978,160.074998 C80.0488978,160.364537 79.8146693,160.597804 79.5260922,160.597804 L79.5260922,160.597804 Z M139.009058,149.749707 C139.009058,150.191711 138.651703,150.549066 138.209699,150.549066 L87.2671743,150.549066 C86.8251703,150.549066 86.4678156,150.191711 86.4678156,149.749707 C86.4678156,149.307703 86.8251703,148.950349 87.2671743,148.950349 L138.209699,148.950349 C138.651703,148.950349 139.009058,149.307703 139.009058,149.749707 L139.009058,149.749707 Z M110.805451,158.483495 L87.2671743,158.483495 C86.8251703,158.483495 86.4678156,158.12614 86.4678156,157.684136 C86.4678156,157.242132 86.8251703,156.884778 87.2671743,156.884778 L110.805451,156.884778 C111.247455,156.884778 111.60481,157.242132 111.60481,157.684136 C111.60481,158.12614 111.247936,158.483495 110.805451,158.483495 L110.805451,158.483495 Z M137.79511,166.03123 L148.48497,166.03123 C148.809138,166.03123 149.072224,165.768144 149.072224,165.443495 L149.072224,141.989868 C149.072224,141.665699 148.809138,141.402613 148.48497,141.402613 L80.299479,141.402613 L73.2134669,141.402613 L58.0660521,141.402613 C57.7418838,141.402613 57.4787976,141.665699 57.4787976,141.989868 L57.4787976,165.443495 C57.4787976,165.768144 57.7418838,166.03123 58.0660521,166.03123 L73.2134669,166.03123 L137.79511,166.03123 Z"/><path fill="#FFF" d="M87.2672705 148.950445C86.8252665 148.950445 86.4679118 149.3078 86.4679118 149.749804 86.4679118 150.191808 86.8252665 150.549162 87.2672705 150.549162L138.209796 150.549162C138.6518 150.549162 139.009154 150.191808 139.009154 149.749804 139.009154 149.3078 138.6518 148.950445 138.209796 148.950445L87.2672705 148.950445ZM110.805499 156.884874 87.2672224 156.884874C86.8252184 156.884874 86.4678637 157.242228 86.4678637 157.684232 86.4678637 158.126236 86.8252184 158.483591 87.2672224 158.483591L110.805499 158.483591C111.247984 158.483591 111.604858 158.126236 111.604858 157.684232 111.604858 157.242228 111.247503 156.884874 110.805499 156.884874M80.0490902 146.786116C80.0490902 146.497539 79.8148617 146.263311 79.5262846 146.263311L64.7881683 146.263311C64.4995912 146.263311 64.2653627 146.497539 64.2653627 146.786116L64.2653627 160.075094C64.2653627 160.363671 64.4995912 160.5979 64.7881683 160.5979L79.5262846 160.5979C79.8148617 160.5979 80.0490902 160.364152 80.0490902 160.075094L80.0490902 146.786116ZM185.439391 169.987816C185.661595 169.605451 185.894381 169.167776 186.143519 168.701242 187.63402 165.903006 189.676184 162.070701 193.422878 162.070701 195.297667 162.070701 196.295182 163.848818 197.353299 165.730341 198.415743 167.622926 199.515222 169.579479 201.489571 170.065251 201.655022 170.106613 201.768529 170.088818 201.902236 170.000321 203.068569 169.231263 203.746244 165.147896 204.290212 161.867735 205.10881 156.931623 205.759551 153.018517 208.179271 153.018517L208.277387 153.021884C210.711535 153.12481 211.440673 156.297234 212.211174 159.656754 212.85422 162.461723 213.583359 165.640882 215.158509 165.871263 217.020794 166.145892 217.74416 165.512465 218.66376 164.715992 219.516986 163.977234 220.586645 163.061964 222.516745 163.236072 224.240994 163.39479 225.216866 164.530822 226.076345 165.533146 227.253739 166.902445 228.354661 168.19479 231.510733 167.877355 232.010453 167.847054 232.44909 168.189499 232.500553 168.68489 232.549611 169.180281 232.189371 169.623727 231.693018 169.67519 227.605323 170.090261 225.999872 168.215471 224.707527 166.711503 223.837948 165.699078 223.300713 165.121924 222.350333 165.033908 221.178709 164.924729 220.621756 165.410982 219.846445 166.081924 218.834501 166.96016 217.577747 168.047615 214.895423 167.658517 212.09911 167.25018 211.261275 163.595832 210.450854 160.061723 209.91891 157.749739 209.25903 154.871182 208.199952 154.825972L208.189371 154.825972C207.290453 154.825972 206.468008 159.778437 206.072657 162.164008 205.376705 166.351263 204.721635 170.30477 202.896385 171.508617 202.511134 171.761603 202.084521 171.89002 201.640112 171.89002 201.449651 171.89002 201.254862 171.866453 201.058629 171.818357 198.32388 171.145972 196.912737 168.633427 195.778148 166.615311 194.986966 165.207535 194.240032 163.876232 193.422878 163.876232 190.759792 163.876232 189.08412 167.022204 187.735984 169.55014 187.476265 170.038798 187.232417 170.495711 186.99915 170.896353 186.750493 171.326814 186.201234 171.478798 185.765002 171.221964 185.333579 170.972345 185.187848 170.418758 185.439391 169.987816M174.677387 180.008657 241.668649 180.008657C242.025523 180.008657 242.315543 179.719118 242.315543 179.361764L242.315543 140.576994C242.315543 140.219639 242.025523 139.9301 241.668649 139.9301L174.677387 139.9301C174.320032 139.9301 174.030012 140.219639 174.030012 140.576994L174.030012 179.361764C174.030012 179.719118 174.320032 180.008657 174.677387 180.008657"/><path fill="#C5D6F1" d="M185.764906 171.222156C186.201138 171.478509 186.750397 171.327006 186.999054 170.896064 187.232321 170.495423 187.476649 170.03899 187.736369 169.549852 189.084024 167.022397 190.759695 163.876425 193.422782 163.876425 194.239936 163.876425 194.98687 165.207246 195.778052 166.615503 196.913122 168.633138 198.323784 171.146164 201.058533 171.818068 201.254766 171.866645 201.449555 171.890212 201.640016 171.890212 202.084906 171.890212 202.511038 171.761796 202.896289 171.50881 204.721539 170.304962 205.376609 166.351455 206.073042 162.1642 206.467912 159.778629 207.290357 154.825683 208.189275 154.825683L208.199856 154.825683C209.259415 154.871375 209.919295 157.749451 210.450758 160.061916 211.261178 163.596024 212.099014 167.249892 214.895327 167.658709 217.578132 168.047327 218.834405 166.960353 219.846349 166.081635 220.62214 165.411174 221.178613 164.924441 222.350236 165.0341 223.300617 165.121635 223.837852 165.699271 224.707431 166.711214 225.999776 168.215663 227.605226 170.089972 231.692922 169.674902 232.189275 169.62392 232.549515 169.180473 232.500457 168.685082 232.448994 168.18921 232.010357 167.846766 231.510637 167.877547 228.354565 168.194982 227.254124 166.902637 226.076248 165.533339 225.21677 164.531014 224.240898 163.394982 222.516649 163.236265 220.586549 163.061675 219.51689 163.977427 218.663663 164.716184 217.744064 165.512657 217.020697 166.145603 215.158413 165.871455 213.583263 165.641074 212.854124 162.461435 212.211078 159.656465 211.440577 156.297427 210.711439 153.125002 208.277772 153.021595L208.179655 153.018228C205.759455 153.018228 205.109194 156.931335 204.290597 161.867928 203.746629 165.148088 203.068954 169.230974 201.90214 170.000513 201.768433 170.08901 201.654926 170.106806 201.489475 170.065443 199.515126 169.579671 198.416128 167.623118 197.353202 165.730533 196.295567 163.84901 195.297571 162.070894 193.422782 162.070894 189.676088 162.070894 187.634405 165.902717 186.143423 168.701435 185.894766 169.167968 185.661499 169.605643 185.439295 169.988008 185.187752 170.418469 185.333964 170.972056 185.764906 171.222156M139.624257 221.223439 93.0825331 213.889251C92.6867014 213.826725 92.3158798 214.097026 92.2533547 214.492377 92.1908297 214.888208 92.4611303 215.259511 92.856481 215.321555L139.398204 222.655743C139.793555 222.717307 140.164858 222.447968 140.227383 222.052136 140.289908 221.656305 140.019607 221.285483 139.624257 221.223439M123.77507 224.506533 81.8957916 224.506533C81.5398798 224.506533 81.2513026 224.79511 81.2513026 225.151022 81.2513026 225.506934 81.5398798 225.795511 81.8957916 225.795511L123.77507 225.795511C124.130982 225.795511 124.419559 225.506453 124.419559 225.151022 124.419559 224.79511 124.130982 224.506533 123.77507 224.506533"/><path fill="#E0E9F8" d="M215.581226,5.73321042 C212.710846,4.55485371 212.129844,-0.0498757515 208.436056,0.000625250501 C205.261707,0.0439118236 204.355575,1.43196794 202.038782,3.27164729 C200.580505,4.42932265 199.156858,4.42451303 198.697058,4.22972345 C198.306998,4.06427255 197.914533,3.89930261 197.509082,3.77617635 C192.295455,2.18323046 190.665475,4.34419238 189.243752,5.5667976 C188.454493,6.24543487 187.166477,7.7267976 187.166477,7.7267976 L223.225154,7.56086573 C222.227639,7.22852104 217.408401,6.48303006 215.581226,5.73321042"/><path fill="#B97A59" d="M282.814894 216.983038 284.670445 221.030333C285.075415 221.936465 285.239904 222.932056 285.147559 223.920433 285.031647 225.162758 284.344353 226.321395 283.232369 226.887487 283.030365 226.990413 282.842309 227.119311 282.663391 227.257828 285.161988 227.003399 287.16808 225.234902 288.445996 222.901275 288.492168 222.816625 288.568641 222.770453 288.649924 222.747848 288.489283 222.465523 288.306036 222.155784 288.120385 222.011014 287.486477 221.516585 286.81794 221.019752 286.506277 220.279551 286.194132 219.537908 284.888321 215.716184 284.442469 214.406525 284.201507 215.370373 283.562309 216.557868 282.814894 216.983038M264.878429 235.295327C264.868329 235.27224 264.858709 235.249154 264.851495 235.225587 264.858228 235.249154 264.868329 235.27224 264.878429 235.295327M273.400016 220.089571C273.360577 220.062637 273.32691 220.030413 273.297571 219.994341 272.827671 224.499992 271.837371 229.779511 270.152561 230.906405 269.045387 231.646605 267.786228 232.363238 266.769956 233.032737 268.02719 232.948569 269.392641 232.88893 270.656609 232.54889 272.271679 232.114581 273.807391 231.449411 275.260377 230.633218L275.404665 230.942958C275.403703 230.941515 275.403703 230.940553 275.403222 230.939591L275.402741 230.938629C274.656289 229.325483 274.511038 227.495423 274.996329 225.785603L276.481058 220.553699C276.413242 220.610934 276.330998 220.651335 276.240096 220.666244 275.263743 220.825443 274.2619 220.682116 273.400016 220.089571M265.320866 235.603431C265.29297 235.606317 265.270365 235.607279 265.247279 235.60824 265.270365 235.607279 265.29297 235.606317 265.320866 235.603431M265.129251 235.605307C265.116265 235.602902 265.10905 235.598573 265.100874 235.594725 265.10905 235.598573 265.116265 235.602902 265.129251 235.605307M264.95216 235.429659C264.933403 235.401764 264.914645 235.374349 264.899735 235.345972 264.914164 235.374349 264.932922 235.401764 264.95216 235.429659M265.031086 235.527824C265.013772 235.509066 264.995014 235.49079 264.980104 235.471551 264.995014 235.490309 265.013772 235.509066 265.031086 235.527824M266.089299 235.467703C266.026293 235.48117 265.966172 235.494156 265.908457 235.505699 265.966172 235.494156 266.026293 235.48117 266.089299 235.467703M265.642581 235.556441C265.599295 235.564617 265.558894 235.57087 265.519936 235.577122 265.558894 235.57087 265.599295 235.564617 265.642581 235.556441M265.465539 235.585587C265.430429 235.590878 265.398204 235.594725 265.367423 235.598092 265.398204 235.594725 265.430429 235.590878 265.465539 235.585587M265.849731 235.517483C265.797788 235.527583 265.748248 235.537202 265.701114 235.546341 265.748248 235.537202 265.797788 235.527583 265.849731 235.517483M265.207647 235.610453C265.187447 235.610453 265.173018 235.60901 265.157627 235.607567 265.173018 235.60901 265.187447 235.610453 265.207647 235.610453M266.65996 235.337603C266.568096 235.359246 266.479118 235.380409 266.393507 235.399647 266.479118 235.380409 266.568096 235.359246 266.65996 235.337603M274.393395 233.185443C274.394357 233.184962 274.394838 233.184481 274.3958 233.184481 272.256962 233.816946 268.721892 234.8438 266.675399 235.3339 268.719487 234.844281 272.253114 233.818389 274.393395 233.185443M266.362148 235.407102C266.285194 235.424417 266.211126 235.441251 266.139463 235.457122 266.211126 235.441251 266.285194 235.424417 266.362148 235.407102"/><path fill="#0B4870" d="M270.656561 232.549034C269.392593 232.889074 268.027142 232.948713 266.769908 233.032882 266.758846 233.033844 266.747303 233.034325 266.736721 233.035287 266.591471 233.044906 266.450549 233.093483 266.33079 233.176208 265.29576 233.890437 264.667142 234.630637 264.851832 235.225587 264.858565 235.249154 264.868665 235.27224 264.878285 235.295327 264.885499 235.31216 264.891271 235.329475 264.899447 235.345828 264.914838 235.374204 264.933595 235.4021 264.952353 235.429515 264.961491 235.443463 264.969186 235.457892 264.979768 235.471359 264.995158 235.490597 265.013916 235.508874 265.03123 235.527631 265.049507 235.547832 265.064898 235.568994 265.08606 235.588713 265.088946 235.591599 265.096641 235.592561 265.10097 235.594485 265.109146 235.598814 265.11588 235.603142 265.129347 235.605066 265.136561 235.606509 265.148104 235.606509 265.157242 235.607471 265.173114 235.608914 265.187543 235.610357 265.207743 235.610357 265.218806 235.609876 265.234196 235.608914 265.247182 235.607952 265.270269 235.60699 265.293355 235.606028 265.32077 235.603623 265.335198 235.60218 265.352032 235.600257 265.367423 235.598333 265.398204 235.594485 265.430429 235.590637 265.465539 235.585347 265.482854 235.582942 265.501611 235.580056 265.519888 235.57717 265.558846 235.570918 265.599246 235.564665 265.642533 235.556489 265.661772 235.553122 265.681491 235.549756 265.70121 235.545908 265.748345 235.537251 265.797403 235.527631 265.849828 235.517531 265.869066 235.513683 265.888305 235.509836 265.908505 235.505507 265.96622 235.493964 266.026341 235.481459 266.089347 235.467511 266.105699 235.464144 266.122533 235.460778 266.139367 235.45693 266.21103 235.441539 266.285098 235.424705 266.362052 235.40691 266.373114 235.404505 266.383214 235.402581 266.393796 235.399695 266.478926 235.380457 266.567904 235.359295 266.659768 235.337651 266.665058 235.336208 266.670349 235.334766 266.675639 235.333804 268.722132 234.843703 272.256721 233.817331 274.395559 233.184385 274.658164 233.106469 274.902012 233.034325 275.117002 232.970357 275.689828 232.799615 275.97119 232.162341 275.719166 231.620297L275.404617 230.943102 275.260329 230.633363C273.807343 231.449555 272.271631 232.114725 270.656561 232.549034M274.400898 135.63992 274.538453 135.647615 275.936128 135.724569 277.964826 135.836633 278.064866 134.703006C278.063904 134.702525 278.062461 134.701563 278.061018 134.700601L278.137972 133.842084C278.131238 133.841603 278.124505 133.842565 278.118253 133.842084 277.33188 133.799279 276.214605 131.203046 275.910637 129.255631 275.848593 128.858357 275.814926 128.463487 275.798573 128.076794 276.527711 127.224529 276.945667 126.291463 277.178934 125.56521 277.543022 126.096673 278.327471 126.729138 280.11184 127.702605 281.965948 128.714068 283.174124 129.013226 284.056208 129.342204 283.83208 129.764489 283.541579 130.090581 283.266469 130.159359 282.997611 130.906293 282.445948 131.723928 281.788954 132.237114 281.718253 132.292906 281.652842 132.338116 281.583583 132.390541L281.68218 132.817635 282.433924 136.083367 283.205387 136.125691 284.693483 136.207936C286.205146 136.291623 287.377251 137.547896 287.353202 139.057154 287.692281 139.59487 287.992882 140.114309 288.296369 140.661643 288.704224 141.403287 289.096208 142.153587 289.453082 142.924569 290.163463 144.467495 290.784385 146.065731 291.24178 147.750541 291.684265 149.437275 291.96707 151.2202 291.850677 153.095471 291.824705 153.47014 291.773723 153.848657 291.707832 154.227655 294.387752 153.26477 296.469355 150.960962 297.038814 148.040561 297.221098 147.10509 297.717451 146.241764 298.534124 145.75022 300.447872 144.595431 301.717611 142.458036 301.598333 139.991182 301.466068 137.255952 299.511439 134.878557 296.863263 134.182124 296.407311 134.062365 295.95713 133.996954 295.516569 133.979158 294.456048 133.936353 293.51721 133.235591 293.205066 132.221242 292.313844 129.326814 289.623824 127.185571 286.371559 127.192305 285.747271 127.193267 285.140297 127.28513 284.558333 127.443848 284.533323 127.412585 284.505427 127.383246 284.479455 127.352946L284.600176 125.16024C284.683864 123.63992 283.518974 122.339399 281.998653 122.256192L279.468313 122.117675C278.744465 122.078236 278.053323 121.84978 277.45693 121.466934 276.59216 120.910942 275.453723 121.017715 274.799615 121.810341 274.514405 122.15519 274.290758 122.552946 274.226309 122.982926 274.198413 123.101242 274.18687 123.241202 274.192641 123.404729 274.256128 125.101563 274.590397 126.270301 274.938613 127.046092 274.463423 128.419719 273.747271 129.655792 273.747271 129.655792 273.754004 129.652425 273.760257 129.648096 273.76699 129.64521 273.328353 130.553747 273.048914 131.604649 272.98687 132.734429 272.92723 133.814669 273.075848 134.842485 273.38222 135.762565 273.704465 135.666373 274.047391 135.620681 274.400898 135.63992"/><path fill="#0B4870" d="M288.312144,154.697555 C288.456433,154.148778 288.530501,153.565371 288.536754,152.955511 C288.543968,151.597756 288.234228,150.162565 287.785972,148.751904 C287.451222,147.679359 287.023647,146.61499 286.535471,145.569379 C286.132425,147.96024 285.662525,150.406894 285.321523,152.118637 C285.210421,152.677996 285.150301,153.244088 285.139719,153.809699 C285.876553,154.188216 286.673026,154.466212 287.518557,154.606172 C287.784529,154.64994 288.049058,154.678798 288.312144,154.697555"/><path fill="#B97A59" d="M258.505202,137.006236 C257.866004,136.686397 257.229691,136.356938 256.596745,136.019303 C255.673299,135.525836 254.754661,135.020345 253.845643,134.495134 C252.676425,133.820345 251.522116,133.115255 250.377908,132.396216 C249.404441,131.786357 248.44396,131.154854 247.508489,130.498822 C247.556104,130.039503 247.353138,129.371928 247.142958,128.830846 C246.130052,129.052569 245.082036,129.180024 244.008048,129.206958 C244.387527,129.874533 244.84877,130.521908 245.329251,130.961988 C245.925643,131.50788 246.350333,131.567038 246.739431,131.377058 C248.673379,133.082068 250.700633,134.643271 252.795222,136.129924 C254.03899,137.012008 255.305363,137.865715 256.596745,138.689122 C257.638509,139.353331 258.695663,139.998782 259.778309,140.613451 C260.7638,141.174253 261.781515,141.691768 262.821836,142.179944 C263.062317,142.292489 263.295583,142.413691 263.539431,142.522389 C263.586565,142.543551 263.635623,142.563271 263.683719,142.583952 C264.939992,143.134653 266.23907,143.636778 267.65887,143.982108 C268.396184,144.157659 269.170052,144.290405 270.007407,144.322148 C270.627848,144.345715 271.299271,144.313972 272.003399,144.140345 C271.733098,142.841747 271.507046,141.592689 271.375263,140.531206 C271.355543,140.542749 271.340633,140.554293 271.319471,140.565355 C271.028008,140.712529 270.570613,140.814493 270.042036,140.825555 C269.516826,140.843351 268.9339,140.790926 268.337988,140.689443 C267.142798,140.491287 265.899511,140.129603 264.672577,139.693852 C264.342637,139.577459 264.012697,139.453852 263.683719,139.325916 C262.786725,138.979142 261.89406,138.596297 261.002838,138.200946 C260.16404,137.823391 259.333419,137.419864 258.505202,137.006236"/><path fill="#FDB32A" d="M272.607631,146.831182 C272.877932,148.150942 273.10206,149.428377 273.276649,150.511022 C273.364665,151.057876 273.398333,151.608577 273.390156,152.156393 C273.368994,153.532906 273.053002,154.89499 272.448914,156.145972 C272.083383,156.901563 271.728914,157.776433 271.405707,158.692665 C271.428794,158.722485 271.453323,158.750862 271.468232,158.784048 C271.567792,159.002886 271.645226,159.205852 271.68178,159.398236 C274.372281,159.650261 277.061339,159.785411 279.677772,159.576192 C281.223583,159.44489 282.741499,159.190942 284.119455,158.721042 C284.752882,158.499319 285.347832,158.221323 285.881699,157.891383 L285.527711,156.693788 C285.250196,155.753988 285.121299,154.781483 285.140056,153.80994 C285.150156,153.243848 285.210277,152.677756 285.32186,152.118397 C285.662862,150.407134 286.132281,147.960481 286.535327,145.569619 C286.379014,145.233908 286.216449,144.90012 286.047631,144.568737 C285.703743,143.885291 285.343984,143.205691 284.961138,142.54004 C284.581659,141.886894 284.162261,141.197675 283.779896,140.618116 L283.755367,140.580601 C283.170036,139.693226 283.414365,138.500922 284.300778,137.915591 C285.183343,137.334108 286.369395,137.573627 286.957611,138.448497 C287.096609,138.655792 287.22695,138.857796 287.352962,139.057395 C287.377491,137.547655 286.204906,136.291864 284.693723,136.207695 L283.205146,136.125451 L282.434164,136.083126 L282.483703,136.299559 L277.904465,136.526092 L277.965066,135.836874 L275.936369,135.724329 L274.538693,135.647375 L274.401138,135.639679 C274.04715,135.620441 273.704224,135.666132 273.38198,135.762325 C272.295487,136.087455 271.45188,137.01523 271.288353,138.199359 C271.212842,138.745731 271.254685,139.560962 271.374926,140.531062 C271.50719,141.592545 271.733242,142.841603 272.003543,144.1402 C272.189675,145.02998 272.396008,145.941403 272.607631,146.831182"/><path fill="#0B4870" d="M281.635046,203.146485 C281.637451,202.476024 281.610036,201.776224 281.548954,201.082677 C281.353683,198.876505 281.575407,196.651094 282.319455,194.565162 C285.854044,184.655904 289.370838,170.907607 288.803784,168.256545 C288.555126,167.093098 288.083784,165.961876 287.464786,164.935984 C285.739575,165.879631 278.863743,169.091495 269.901499,166.008529 C269.895727,165.947928 269.895246,165.876265 269.892361,165.809892 C269.093483,171.627126 267.90695,188.760914 270.210758,192.187287 C270.637371,193.455583 271.242902,194.814782 271.800337,195.992176 C272.14182,196.713138 273.078733,198.602838 274.315768,201.043719 C274.501419,201.410212 274.694285,201.790172 274.892441,202.17879 C274.858774,202.464962 274.821739,202.788168 274.781339,203.146485 C274.774605,203.205643 274.768353,203.265764 274.761138,203.326846 C274.754405,203.387928 274.747671,203.450934 274.740457,203.513459 C274.330196,207.220232 273.65685,214.000834 273.185026,219.616064 C273.173002,219.753138 273.213884,219.890212 273.297571,219.9941 C273.32691,220.030172 273.360577,220.062878 273.400016,220.089812 C274.2619,220.682357 275.263743,220.825683 276.240096,220.666485 C276.330998,220.651575 276.413242,220.611174 276.481058,220.553459 C276.55176,220.49382 276.60707,220.415904 276.639776,220.326445 C277.71184,217.368529 278.825747,214.16917 279.718413,211.456545 C280.798172,213.482357 281.848112,215.407647 282.764345,217.016465 C282.781659,217.007327 282.798012,216.992898 282.814846,216.983279 C283.562261,216.558108 284.201459,215.370613 284.442421,214.406285 C284.442902,214.403399 284.444345,214.399551 284.445307,214.396665 C283.654605,211.255984 282.624866,207.478028 281.615808,203.960273 C281.622541,203.81406 281.62687,203.664481 281.630236,203.513459 C281.631679,203.450934 281.634084,203.389852 281.634565,203.326846 C281.635527,203.267206 281.634565,203.206605 281.635046,203.146485"/><path fill="#FDB32A" d="M282.291222,161.664914 C281.437515,161.73321 280.588136,161.772168 279.749339,161.749563 C276.756794,161.700024 273.861403,161.224834 271.027094,160.575535 C270.958798,160.615936 270.887134,160.656337 270.807295,160.696257 C270.793347,160.703471 270.776513,160.709242 270.762084,160.715976 C270.191663,162.718701 269.836232,164.65794 269.892505,165.809844 C269.895391,165.876216 269.895872,165.94788 269.901643,166.008481 C278.863888,169.091447 285.739719,165.879583 287.46493,164.935936 C287.740521,164.784914 287.889619,164.690164 287.889619,164.690164 L287.458677,163.231407 L286.678557,160.590445 C286.081202,160.851126 285.473747,161.055054 284.867255,161.216176 C284.005371,161.44319 283.14493,161.569202 282.291222,161.664914"/><path fill="#B97A59" d="M278.974269,135.024385 C278.635671,135.005627 278.332665,134.893563 278.06477,134.703102 L277.964729,135.836729 L277.904128,136.526429 L282.483848,136.299415 L282.433828,136.083463 L281.682084,132.817731 C280.981804,133.524745 280.046333,135.083543 278.974269,135.024385"/><path fill="#AA6B4F" d="M281.682036,132.81778 L281.682036,132.81778 L281.583439,132.390204 C280.141515,133.479583 279.087246,133.88792 278.137828,133.841747 L278.061355,134.700745 C278.062798,134.701707 278.06424,134.702188 278.064721,134.70315 C278.332617,134.893611 278.635623,135.005675 278.97422,135.024433 C280.046285,135.083591 280.981756,133.524794 281.682036,132.81778"/><path fill="#B97A59" d="M281.583391 132.390349C281.65313 132.338405 281.71806 132.292713 281.789242 132.237403 282.445756 131.724216 282.997419 130.906581 283.266277 130.159166 283.541387 130.09087 283.832369 129.764297 284.056497 129.342493 283.174413 129.013034 281.965756 128.713876 280.111647 127.702413 278.327279 126.728946 277.543311 126.096481 277.179222 125.565018 276.945475 126.291271 276.527519 127.224337 275.798862 128.076601 275.815214 128.463295 275.848401 128.858164 275.910445 129.255439 276.214894 131.202854 277.331687 133.799086 278.11806 133.842373 278.124794 133.842373 278.131046 133.841892 278.13778 133.841892 279.087679 133.887583 280.141467 133.479727 281.583391 132.390349M291.241635 147.750397C290.784721 146.065587 290.1638 144.467351 289.452938 142.924906 289.096064 142.153443 288.704561 141.403623 288.296224 140.66198 287.992737 140.114164 287.692136 139.594725 287.353058 139.057491 287.227046 138.857892 287.096705 138.655888 286.957707 138.448593 286.369491 137.573723 285.183439 137.334204 284.300874 137.915687 283.414461 138.501018 283.170132 139.693323 283.755463 140.580697L283.779992 140.618212C284.162357 141.197772 284.581275 141.88699 284.960754 142.540136 285.34408 143.205788 285.70384 143.885387 286.047727 144.568834 286.216545 144.900216 286.37911 145.234004 286.535423 145.569715 287.023599 146.615327 287.451174 147.679695 287.785924 148.75176 288.23418 150.162902 288.544401 151.597611 288.536705 152.955367 288.530453 153.565226 288.456385 154.149114 288.312096 154.697411 288.135583 155.368353 287.852297 155.986389 287.435784 156.523623 287.035142 157.055086 286.500313 157.508633 285.881315 157.891479 285.347928 158.221419 284.752978 158.499415 284.11907 158.721138 282.741595 159.191038 281.223679 159.444505 279.677868 159.576289 277.061435 159.785026 274.372377 159.650357 271.681876 159.398333 271.645323 159.205948 271.567888 159.002982 271.468329 158.783663 271.452938 158.750958 271.42889 158.7221 271.405804 158.692762 270.890693 158.035768 268.486365 158.291158 268.486365 158.291158 268.486365 158.291158 265.801154 157.927551 266.067126 158.449395 266.333579 158.971719 268.196826 159.062621 268.270413 159.542621 268.344481 160.023102 267.243559 159.983663 266.280192 159.863904 265.316345 159.744144 263.341996 159.401218 263.806605 160.211639 263.934541 160.434325 265.720834 161.335647 266.818389 161.409715 267.901996 161.483784 269.651255 161.255808 270.762277 160.716168 270.776224 160.708954 270.793058 160.703663 270.807487 160.696449 270.887327 160.656529 270.95899 160.616128 271.027287 160.575727 273.861114 161.225026 276.756986 161.700216 279.74905 161.749275 280.588329 161.77188 281.437226 161.732922 282.291415 161.665106 283.145122 161.568914 284.005563 161.443383 284.867447 161.216369 285.47394 161.055246 286.081395 160.850838 286.678749 160.590156 286.928369 160.480978 287.176545 160.365066 287.421836 160.233283 288.250533 159.789836 289.047006 159.201619 289.716986 158.462381 290.389852 157.727952 290.928529 156.847311 291.262317 155.917611 291.468649 155.361619 291.609571 154.794565 291.708168 154.227992 291.773579 153.848994 291.824561 153.470477 291.851014 153.095327 291.967407 151.220056 291.68412 149.43713 291.241635 147.750397"/><path fill="#0B4870" d="M288.446044,222.90113 C287.168128,225.235238 285.162036,227.003255 282.663439,227.258164 C282.624,227.261531 282.585042,227.268745 282.545603,227.272112 C281.693339,227.781932 281.100313,229.007904 281.243639,229.50618 C281.277788,229.623535 282.401796,229.701451 283.621515,229.089667 C289.036665,226.374156 289.849491,224.977443 289.849491,224.977443 C290.079391,224.740329 290.104401,224.372874 289.905764,224.108826 C289.742717,223.892874 289.312257,223.301291 288.988088,222.857363 C288.90392,222.742413 288.770212,222.714517 288.649972,222.748184 C288.568689,222.77079 288.492216,222.816481 288.446044,222.90113"/><path fill="#C5D6F1" d="M257.642838,112.599535 C257.642838,120.352641 251.335022,126.659976 243.582397,126.659976 C235.829291,126.659976 229.521475,120.352641 229.521475,112.599535 C229.521475,104.84691 235.829291,98.5390942 243.582397,98.5390942 C251.335022,98.5390942 257.642838,104.846429 257.642838,112.599535 M243.582397,95.9823006 C234.404681,95.9823006 226.964681,103.422301 226.964681,112.600016 C226.964681,121.777731 234.404681,129.217731 243.582397,129.217731 C243.725242,129.217731 243.866164,129.210517 244.008048,129.206669 C245.082036,129.179735 246.130052,129.052281 247.142958,128.831038 C250.944962,128.000417 254.25879,125.869756 256.596745,122.926749 C258.850533,120.090517 260.199631,116.503984 260.199631,112.600016 C260.199631,108.696048 258.850533,105.109515 256.596745,102.273283 C253.552737,98.4419399 248.856144,95.9823006 243.582397,95.9823006"/><path fill="#E0E9F8" d="M243.582253,114.247214 L238.469627,111.849138 L243.582253,103.627094 L248.694878,111.849138 L243.582253,114.247214 Z M243.582253,121.572265 L238.469627,113.35022 L243.582253,116.696273 L248.694878,113.35022 L243.582253,121.572265 Z M243.582253,98.538998 C235.829146,98.538998 229.521812,104.846814 229.521812,112.599439 C229.521812,120.352545 235.829146,126.65988 243.582253,126.65988 C251.334878,126.65988 257.642693,120.352545 257.642693,112.599439 C257.642693,104.846333 251.334878,98.538998 243.582253,98.538998 L243.582253,98.538998 Z"/><polygon fill="#FFF" points="238.47 111.849 243.582 114.247 248.695 111.849 243.582 103.627"/><polygon fill="#FFF" points="238.47 113.35 243.582 121.572 248.695 113.35 243.582 116.696"/></g></svg>