<svg xmlns="http://www.w3.org/2000/svg" width="286" height="241" viewBox="0 0 286 241"><g fill="none" fill-rule="evenodd"><g transform="translate(0 50)"><ellipse cx="143" cy="178.9" fill="#E0E9F8" fill-rule="nonzero" rx="143" ry="11.5"/><g transform="translate(181 61)"><path fill="#C5D6F1" d="M-7.10542736e-14 112.820216C.414420485 113.176011.866576819 113.488679 1.36320755 113.746765 2.67654987 114.449596 4.18396226 114.631536 5.70687332 114.631536 6.37264151 114.631536 7.04177898 114.596496 7.69811321 114.555391 12.9541779 114.151752 18.3450135 113.275741 22.9265499 110.647035 27.509434 108.019003 31.2156334 103.436792 31.6199461 98.1807278 31.754717 96.3613208 31.5525606 94.5419137 32.0916442 92.8572776 34.5175202 85.2427224 48.2641509 87.466442 51.1617251 80.0540431 52.7789757 76.0109164 50.083558 71.2265499 51.7681941 67.2508086 52.8463612 64.758221 55.4743935 63.2076819 57.2264151 61.1187332 59.4501348 58.3566038 60.1913747 54.3134771 58.574124 51.2130728 57.3672507 48.9004043 54.7351752 47.337062 52.1597035 47.337062 51.2843666 47.337062 50.4150943 47.5183288 49.6118598 47.9118598 45.5687332 49.7986523 44.4231806 55.4583558 40.3800539 57.2110512 39.1428571 57.7521563 37.777628 57.8397574 36.3894879 57.8397574 36.0566038 57.8397574 35.7230458 57.8343666 35.3894879 57.8303235 35.0545822 57.8249326 34.7216981 57.8195418 34.3894879 57.8195418 33.5175202 57.8195418 32.6576819 57.8586253 31.8342318 58.0203504 31.1192722 58.3842318 30.3605121 58.7009434 29.5640162 58.9462264 27.1320755 60.6315364 26.4346361 63.9394879 25.0592992 66.6874663 27.5983827 66.0884097 30.8537736 66.0836927 34.8544474 67.5203504 34.8544474 67.5203504 26.9460916 74.4327493 19.2345013 71.2939353 16.2830189 76.8815364 12.6516173 82.0884097 8.23719677 86.6584906 7.19339623 87.7218329 6.09097035 88.8006739 4.93530997 89.8478437L4.93530997 102.022372C4.9393531 102.47655 4.9171159 102.925337 4.87735849 103.370081 4.87331536 103.419272 4.8712938 103.469137 4.86657682 103.518329 4.82479784 103.938814 4.76212938 104.353235 4.68396226 104.762264 4.67183288 104.828976 4.6597035 104.895687 4.64622642 104.963073 4.56334232 105.362668 4.46361186 105.755526 4.34838275 106.142318 4.32816712 106.208356 4.30727763 106.275067 4.28638814 106.341779 4.16442049 106.729245 4.02762803 107.109973 3.87331536 107.482615 3.85107817 107.535175 3.82749326 107.586388 3.80458221 107.638949 3.64016173 108.023046 3.46293801 108.400404 3.26549865 108.766307 3.25404313 108.787197 3.24191375 108.807412 3.23045822 108.827628 3.0309973 109.194205 2.81469003 109.55 2.58423181 109.896361 2.56671159 109.923315 2.54986523 109.950943 2.53167116 109.977898 2.30188679 110.31752 2.05592992 110.64434 1.79784367 110.963073 1.76010782 111.008895 1.72371968 111.056739 1.68530997 111.103235 1.4319407 111.407817 1.16509434 111.701617.886792453 111.984636.838948787 112.033154.790431267 112.081671.741913747 112.130863.501347709 112.368059.25606469 112.599865-7.10542736e-14 112.820216M17.5662399 71.4281671C16.1255391 71.5784367 14.6376685 71.6404313 13.2239218 71.9005391 9.92136119 72.5076819 6.34993261 75.674124 7.89979784 78.6390836 6.84925876 78.8708895 5.86071429 79.1343666 4.93551213 79.4254717L4.93551213 87.7246631C10.1342992 83.0548518 14.2906334 77.5191375 17.5662399 71.4281671"/><path fill="#99B9EE" d="M8.23692722,86.6583558 C12.6520216,82.0882749 16.2827493,76.8814016 19.2342318,71.2938005 C26.946496,74.4326146 34.8541779,67.5208895 34.8541779,67.5208895 C30.853504,66.083558 27.5981132,66.0889488 25.0590296,66.6873315 C23.1560647,67.1367925 21.6540431,67.9177898 20.5495957,68.6839623 C22.0084906,65.6516173 23.2760108,62.5222372 24.3656334,59.328841 C26.2200809,59.634097 27.9680593,59.4373315 29.5637466,58.9460916 C30.3602426,58.7008086 31.1190027,58.384097 31.8346361,58.0202156 C36.0266846,55.8834232 38.719407,52.1570081 38.7625337,52.1570081 C31.7315364,51.3180593 27.5907008,53.9123989 25.3831536,56.1650943 C25.9444744,54.3032345 26.4545822,52.4265499 26.9026954,50.5390836 C27.265903,48.9912399 27.5913747,47.4373315 27.8838275,45.8787062 C36.4512129,45.4851752 40.5799191,35.5128032 40.5145553,35.5128032 C33.4512129,36.3551213 30.0455526,39.8746631 28.4451482,42.5842318 C28.9990566,39.0525606 29.3892183,35.5 29.6345013,31.9366577 C38.1095687,31.6536388 42.1318059,21.7654987 42.1318059,21.7654987 C34.3919137,22.6603774 31.1102426,26.8504043 29.7766846,29.5667116 C30.0219677,24.8322102 30.0287062,20.0828841 29.8602426,15.3402965 C33.3117251,8.14824798 27.5098383,0.0640161725 27.5098383,1.42108547e-14 C23.640566,8.14959569 26.640566,13.5714286 28.261186,15.6677898 C28.3292453,17.5235849 28.3669811,19.402965 28.3683288,21.3018868 C26.0226415,15.333558 19.0738544,12.4117251 19.0185984,12.4663073 C20.0603774,21.9487871 26.0933962,24.7884097 28.3097035,25.5181941 C28.2214286,28.7587601 28.0327493,32.0350404 27.7126685,35.3187332 C25.617655,28.9561995 18.1991914,25.8766846 18.1425876,25.8766846 C19.1661725,35.190027 25.001752,38.0929919 27.3090296,38.8847709 C26.9161725,42.009434 26.4040431,45.1273585 25.7591644,48.2122642 C24.2733154,41.4737197 16.8622642,37.7459569 16.8622642,37.8039084 C17.1850404,47.1718329 22.7955526,50.4716981 25.0401617,51.421159 C24.196496,54.9056604 23.1688679,58.3315364 21.9431267,61.6597035 C20.9566038,54.4049865 12.8865229,50.3376011 12.8865229,50.3376011 C13.2092992,59.6954178 18.8083558,62.9986523 21.0570081,63.9521563 C20.0239892,66.5175202 18.8642857,69.0154987 17.566442,71.4278976 C14.2901617,77.5188679 10.1338275,83.0545822 4.93571429,87.7243935 L4.93571429,89.8477089 C6.09070081,88.8012129 7.19312668,87.7216981 8.23692722,86.6583558"/></g><g transform="matrix(-1 0 0 1 105 61)"><path fill="#C5D6F1" d="M-7.10542736e-14 112.820216C.414420485 113.176011.866576819 113.488679 1.36320755 113.746765 2.67654987 114.449596 4.18396226 114.631536 5.70687332 114.631536 6.37264151 114.631536 7.04177898 114.596496 7.69811321 114.555391 12.9541779 114.151752 18.3450135 113.275741 22.9265499 110.647035 27.509434 108.019003 31.2156334 103.436792 31.6199461 98.1807278 31.754717 96.3613208 31.5525606 94.5419137 32.0916442 92.8572776 34.5175202 85.2427224 48.2641509 87.466442 51.1617251 80.0540431 52.7789757 76.0109164 50.083558 71.2265499 51.7681941 67.2508086 52.8463612 64.758221 55.4743935 63.2076819 57.2264151 61.1187332 59.4501348 58.3566038 60.1913747 54.3134771 58.574124 51.2130728 57.3672507 48.9004043 54.7351752 47.337062 52.1597035 47.337062 51.2843666 47.337062 50.4150943 47.5183288 49.6118598 47.9118598 45.5687332 49.7986523 44.4231806 55.4583558 40.3800539 57.2110512 39.1428571 57.7521563 37.777628 57.8397574 36.3894879 57.8397574 36.0566038 57.8397574 35.7230458 57.8343666 35.3894879 57.8303235 35.0545822 57.8249326 34.7216981 57.8195418 34.3894879 57.8195418 33.5175202 57.8195418 32.6576819 57.8586253 31.8342318 58.0203504 31.1192722 58.3842318 30.3605121 58.7009434 29.5640162 58.9462264 27.1320755 60.6315364 26.4346361 63.9394879 25.0592992 66.6874663 27.5983827 66.0884097 30.8537736 66.0836927 34.8544474 67.5203504 34.8544474 67.5203504 26.9460916 74.4327493 19.2345013 71.2939353 16.2830189 76.8815364 12.6516173 82.0884097 8.23719677 86.6584906 7.19339623 87.7218329 6.09097035 88.8006739 4.93530997 89.8478437L4.93530997 102.022372C4.9393531 102.47655 4.9171159 102.925337 4.87735849 103.370081 4.87331536 103.419272 4.8712938 103.469137 4.86657682 103.518329 4.82479784 103.938814 4.76212938 104.353235 4.68396226 104.762264 4.67183288 104.828976 4.6597035 104.895687 4.64622642 104.963073 4.56334232 105.362668 4.46361186 105.755526 4.34838275 106.142318 4.32816712 106.208356 4.30727763 106.275067 4.28638814 106.341779 4.16442049 106.729245 4.02762803 107.109973 3.87331536 107.482615 3.85107817 107.535175 3.82749326 107.586388 3.80458221 107.638949 3.64016173 108.023046 3.46293801 108.400404 3.26549865 108.766307 3.25404313 108.787197 3.24191375 108.807412 3.23045822 108.827628 3.0309973 109.194205 2.81469003 109.55 2.58423181 109.896361 2.56671159 109.923315 2.54986523 109.950943 2.53167116 109.977898 2.30188679 110.31752 2.05592992 110.64434 1.79784367 110.963073 1.76010782 111.008895 1.72371968 111.056739 1.68530997 111.103235 1.4319407 111.407817 1.16509434 111.701617.886792453 111.984636.838948787 112.033154.790431267 112.081671.741913747 112.130863.501347709 112.368059.25606469 112.599865-7.10542736e-14 112.820216M17.5662399 71.4281671C16.1255391 71.5784367 14.6376685 71.6404313 13.2239218 71.9005391 9.92136119 72.5076819 6.34993261 75.674124 7.89979784 78.6390836 6.84925876 78.8708895 5.86071429 79.1343666 4.93551213 79.4254717L4.93551213 87.7246631C10.1342992 83.0548518 14.2906334 77.5191375 17.5662399 71.4281671"/><path fill="#99B9EE" d="M8.23692722,86.6583558 C12.6520216,82.0882749 16.2827493,76.8814016 19.2342318,71.2938005 C26.946496,74.4326146 34.8541779,67.5208895 34.8541779,67.5208895 C30.853504,66.083558 27.5981132,66.0889488 25.0590296,66.6873315 C23.1560647,67.1367925 21.6540431,67.9177898 20.5495957,68.6839623 C22.0084906,65.6516173 23.2760108,62.5222372 24.3656334,59.328841 C26.2200809,59.634097 27.9680593,59.4373315 29.5637466,58.9460916 C30.3602426,58.7008086 31.1190027,58.384097 31.8346361,58.0202156 C36.0266846,55.8834232 38.719407,52.1570081 38.7625337,52.1570081 C31.7315364,51.3180593 27.5907008,53.9123989 25.3831536,56.1650943 C25.9444744,54.3032345 26.4545822,52.4265499 26.9026954,50.5390836 C27.265903,48.9912399 27.5913747,47.4373315 27.8838275,45.8787062 C36.4512129,45.4851752 40.5799191,35.5128032 40.5145553,35.5128032 C33.4512129,36.3551213 30.0455526,39.8746631 28.4451482,42.5842318 C28.9990566,39.0525606 29.3892183,35.5 29.6345013,31.9366577 C38.1095687,31.6536388 42.1318059,21.7654987 42.1318059,21.7654987 C34.3919137,22.6603774 31.1102426,26.8504043 29.7766846,29.5667116 C30.0219677,24.8322102 30.0287062,20.0828841 29.8602426,15.3402965 C33.3117251,8.14824798 27.5098383,0.0640161725 27.5098383,1.42108547e-14 C23.640566,8.14959569 26.640566,13.5714286 28.261186,15.6677898 C28.3292453,17.5235849 28.3669811,19.402965 28.3683288,21.3018868 C26.0226415,15.333558 19.0738544,12.4117251 19.0185984,12.4663073 C20.0603774,21.9487871 26.0933962,24.7884097 28.3097035,25.5181941 C28.2214286,28.7587601 28.0327493,32.0350404 27.7126685,35.3187332 C25.617655,28.9561995 18.1991914,25.8766846 18.1425876,25.8766846 C19.1661725,35.190027 25.001752,38.0929919 27.3090296,38.8847709 C26.9161725,42.009434 26.4040431,45.1273585 25.7591644,48.2122642 C24.2733154,41.4737197 16.8622642,37.7459569 16.8622642,37.8039084 C17.1850404,47.1718329 22.7955526,50.4716981 25.0401617,51.421159 C24.196496,54.9056604 23.1688679,58.3315364 21.9431267,61.6597035 C20.9566038,54.4049865 12.8865229,50.3376011 12.8865229,50.3376011 C13.2092992,59.6954178 18.8083558,62.9986523 21.0570081,63.9521563 C20.0239892,66.5175202 18.8642857,69.0154987 17.566442,71.4278976 C14.2901617,77.5188679 10.1338275,83.0545822 4.93571429,87.7243935 L4.93571429,89.8477089 C6.09070081,88.8012129 7.19312668,87.7216981 8.23692722,86.6583558"/></g><g transform="translate(63.2)"><g transform="translate(35.287)"><path fill="#BCD1F3" fill-rule="nonzero" d="M87.9418195,163.08325 L87.9418195,163.08325 L87.9418195,12.784715 C87.9406726,5.79204956 82.2721062,0.122336283 75.2794407,0.122336283 L12.7673204,0.122336283 C5.77465487,0.122336283 0.106279646,5.79204956 0.104941419,12.784715 L0.104941419,165.176538 C0.10379469,172.168439 5.77083186,177.838917 12.7629239,177.838917 C12.7644531,177.838917 12.7657912,177.838917 12.7673204,177.838917 L75.2794407,177.838917 C82.2721062,177.838917 87.9416283,172.171497 87.9439221,165.178832 L87.9418195,163.08325 Z"/><path fill="#B4C9EB" fill-rule="nonzero" d="M32.5613328 7.50456637C32.5624779 8.17168142 32.022669 8.71359292 31.355554 8.71474165 30.6884389 8.71588673 30.1465274 8.17607788 30.1453787 7.50896283 30.1442336 6.84184779 30.6840425 6.29993628 31.3511575 6.29878933 31.3526867 6.29878933 31.3540248 6.29878933 31.355554 6.29878933 32.0215221 6.29859823 32.5613328 6.83859823 32.5613328 7.50456637ZM35.8495009 6.00881416 58.3869027 6.00881416C58.5421168 6.00881416 58.668085 6.13459115 58.668085 6.28999646L58.668085 8.71913628C58.668085 8.87435044 58.5421168 9.00031858 58.3869027 9.00031858L35.8495009 9.00031858C35.6942867 9.00031858 35.5683186 8.87454159 35.5683186 8.71913628L35.5683186 6.28999646C35.5683186 6.13459115 35.6940956 6.00881416 35.8495009 6.00881416Z"/><circle cx="43.783" cy="170.371" r="4.819" fill="#B4C9EB" fill-rule="nonzero"/><rect width="83.275" height="148.188" x="2.385" y="14.885" fill="#FFF" fill-rule="nonzero"/><g transform="translate(12.549 71.407)"><rect width="54.614" height="54.614" x="4.776" y="4.013" fill="#E0E9F8" rx="6.4"/><rect width="54.614" height="54.614" x=".789" y=".736" fill="#ECF0F7" rx="6.4"/><path fill="#E0E9F8" d="M28.0960809,18.7585335 C30.2074704,18.7585335 31.9190898,20.4701529 31.9190898,22.5815424 C31.9190898,23.9126542 31.2387911,25.0848739 30.2069111,25.7694839 L31.9190898,37.3274336 L24.2730721,37.3274336 L25.9852507,25.7694839 C24.9533707,25.0848739 24.2730721,23.9126542 24.2730721,22.5815424 C24.2730721,20.4701529 25.9846914,18.7585335 28.0960809,18.7585335 Z"/><g transform="translate(48.467 3.466)"><circle cx="1.966" cy="1.966" r="1.638" fill="#BCD1F3"/><circle cx="1.638" cy="1.638" r="1.638" fill="#E0E9F8"/><line x1="2.621" x2=".655" y1=".328" y2="2.785" stroke="#0B4870" stroke-width=".5" opacity=".1"/></g><g transform="translate(48.467 48.25)"><circle cx="1.966" cy="1.966" r="1.638" fill="#BCD1F3"/><circle cx="1.638" cy="1.638" r="1.638" fill="#E0E9F8"/><line x1="3.277" y1="1.638" y2="1.638" stroke="#0B4870" stroke-width=".5" opacity=".1"/></g><g transform="translate(4.23 48.25)"><circle cx="1.966" cy="1.966" r="1.638" fill="#BCD1F3"/><circle cx="1.638" cy="1.638" r="1.638" fill="#E0E9F8"/><line x1="1.638" x2="1.638" y2="3.277" stroke="#0B4870" stroke-width=".5" opacity=".1"/></g><g transform="translate(3.137 3.466)"><circle cx="1.966" cy="1.966" r="1.638" fill="#BCD1F3"/><circle cx="1.638" cy="1.638" r="1.638" fill="#E0E9F8"/><line x1=".328" x2="2.785" y1=".328" y2="2.785" stroke="#0B4870" stroke-width=".5" opacity=".1"/></g></g></g><g fill-rule="nonzero" transform="translate(46.947 40.044)"><polygon fill="#99B9EE" points="11.469 6.983 7.427 6.983 8.676 10.774 6.277 11.469 4.929 7.646 1.545 10.142 0 8.278 3.451 5.814 .099 3.507 1.61 1.517 4.929 3.823 6.211 0 8.676 .79 7.427 4.644 11.469 4.644"/><polygon fill="#99B9EE" points="29.31 6.983 25.268 6.983 26.516 10.774 24.117 11.469 22.77 7.646 19.385 10.142 17.841 8.278 21.291 5.814 17.939 3.507 19.451 1.517 22.77 3.823 24.052 0 26.516 .79 25.268 4.644 29.31 4.644"/><polygon fill="#99B9EE" points="47.15 6.983 43.108 6.983 44.357 10.774 41.958 11.469 40.611 7.646 37.226 10.142 35.681 8.278 39.132 5.814 35.78 3.507 37.292 1.517 40.611 3.823 41.892 0 44.357 .79 43.108 4.644 47.15 4.644"/><polygon fill="#C5D6F1" points="64.991 6.983 60.949 6.983 62.198 10.774 59.799 11.469 58.452 7.646 55.067 10.142 53.522 8.278 56.973 5.814 53.621 3.507 55.132 1.517 58.452 3.823 59.733 0 62.198 .79 60.949 4.644 64.991 4.644" opacity=".4"/></g><g fill-rule="nonzero" transform="translate(0 64)"><path fill="#FCD2B1" d="M10.73744,109.819173 L10.2649867,112.74256 C10.07664,113.90904 10.7632,115.03968 11.8850667,115.410027 L16.9078933,117.06856 L5.1828,117.06856 L6.60184,109.818987 L10.73744,109.818987 L10.73744,109.819173 Z"/><path fill="#0B4870" d="M5.50648,115.41432 L11.3026667,115.115467 C11.3026667,115.115467 18.59536,116.249653 18.64072,117.83184 L4.18133333,117.83184 L5.50648,115.41432 Z"/><g transform="translate(36.96 109.76)"><path fill="#FCD2B1" d="M4.90429333,0.0591733333 L6.10661333,3.72941333 C6.36981333,4.53301333 6.99906667,5.16376 7.80192,5.42882667 L13.4952533,7.30893333 L1.77016,7.30893333 L0.117413333,0.05936 L4.90429333,0.05936 L4.90429333,0.0591733333 Z"/><path fill="#0B4870" d="M1.54522667,5.65432 L7.88965333,5.35546667 C7.88965333,5.35546667 15.1823467,6.48965333 15.2277067,8.07184 L0.76832,8.07184 L1.54522667,5.65432 Z"/></g><path fill="#FCD2B1" d="M12.70752,47.7105067 C10.5838133,47.59608 10.7456533,49.0121333 8.04290667,46.8307467 C5.34016,44.64936 8.18682667,49.9594667 8.18682667,49.9594667 C8.18682667,49.9594667 12.8779467,50.5879733 13.2163733,48.5131733 C13.5548,46.4383733 14.4489333,47.8044 12.70752,47.7105067 Z"/><path fill="#0B4870" d="M12.3175733,42.1487733 C12.3175733,42.1487733 9.46306667,44.0481067 8.63128,51.3327733 C7.79949333,58.6170667 8.95570667,63.8883467 8.29845333,68.1411733 L8.29808,68.14304 C7.64026667,72.3960533 6.35936,111.057333 6.35936,111.057333 L12.5891733,111.057333 L22.9730667,42.1991733 L12.3175733,42.1487733 Z"/><path fill="#0B4870" d="M25.86136,41.3720533 L14.8485867,41.3720533 C14.8485867,41.3720533 13.4876,49.5865067 15.8825333,54.3763733 C18.27728,59.1658667 19.5587467,60.4555467 20.2458667,63.23856 L20.2460533,63.2394933 C20.9331733,66.0230667 37.3443467,111.057333 37.3443467,111.057333 L42.6548267,111.057333 L25.86136,41.3720533 Z"/><path fill="#FFE3CA" d="M9.96986667,18.2371467 C9.96986667,18.2371467 -1.10693333,34.0190667 0.165386667,38.2851467 C0.811626667,40.4517867 5.77845333,49.0670133 8.18701333,49.9594667 L8.31152,47.92704 L8.10189333,47.0711733 L5.45421333,36.2642933 L12.0653867,24.96312 L9.96986667,18.2371467 Z"/><path fill="#FDB32A" d="M24.23904,18.0124 L9.96968,18.2373333 L12.7428,39.4070133 L12.7428,39.4072 C13.0074933,40.7840533 7.12021333,47.6069067 10.78,47.6069067 L27.5997867,48.51336 C28.22232,48.51336 27.1383467,41.6948 27.1383467,41.0724533 L27.1383467,33.36312 C28.8155467,25.9203467 24.23904,18.0124 24.23904,18.0124 Z"/><polygon fill="#FDB32A" points="5.554 25.042 9.828 28.788 12.259 24.606 9.97 18.237"/><path fill="#FCD2B1" d="M21.72016,6.36458667 L23.1171733,9.67026667 C23.1171733,9.67026667 23.9457867,12.1258667 23.4664267,13.56208 C22.91352,15.2187467 20.4228267,15.2086667 20.4228267,15.2086667 L21.17136,19.2501867 L14.8485867,19.2501867 L14.8485867,6.47696 L21.72016,6.36458667 Z"/><path fill="#0B4870" d="M21.3587733,7.72482667 C22.4952,6.95762667 22.7171467,5.38122667 21.83552,4.33104 C20.5968,2.85562667 18.4590933,1.09461333 15.414,1.31152 C12.4152,1.52525333 9.52709333,3.36616 9.46344,7.65669333 C9.42088,10.5281867 7.94584,12.1801867 6.68658667,16.1132533 C4.31797333,23.51104 22.1343733,26.4316267 22.34624,16.5032 C22.4468533,11.7908 19.2895733,10.9539733 19.6294933,8.62922667 C20.26976,8.39328 20.8564533,8.06381333 21.3587733,7.72482667 Z"/><path fill="#FFE3CA" d="M55.4021067,4.65472 C56.5075467,1.63296 55.4784533,0.577546667 55.0806667,0.0994933333 C54.9996533,0.00205333333 52.5825067,4.30117333 52.3502933,4.03069333 C51.88232,3.48525333 51.52504,2.85376 51.3870933,3.02941333 C50.7593333,3.82778667 51.0527733,5.12866667 51.4145333,5.95933333 C51.6200533,6.43141333 50.79704,7.60349333 50.4754133,8.00538667 L37.52448,18.0124 L24.42216,18.0124 C21.7227733,18.5458933 23.05352,24.1686667 26.2856533,24.0400533 C29.12112,23.9273067 36.47672,23.6159467 39.69504,21.59528 C42.91336,19.5744267 53.4243733,7.31341333 53.4243733,7.31341333 C54.8428533,6.2356 55.3121333,4.90018667 55.4021067,4.65472 Z"/><path fill="#FDB32A" d="M31.2067467,18.0124 L31.43896,23.69864 L24.14216,24.3870667 C24.14216,24.3870667 20.6434667,19.2024 23.86832,18.0124 C25.2924,17.4869333 31.2067467,18.0124 31.2067467,18.0124 Z"/></g></g></g><g transform="translate(42 12)"><circle cx="13.129" cy="13.129" r="12.334" fill="#FFF"/><path fill="#C5D6F1" d="M24.4112816,13.2226978 C24.4112816,19.3920144 19.3920144,24.4108989 13.2230805,24.4108989 C7.05376391,24.4108989 2.03449672,19.3920144 2.03449672,13.2226978 C2.03449672,7.05376391 7.05376391,2.03449672 13.2230805,2.03449672 C19.3920144,2.03449672 24.4112816,7.0533812 24.4112816,13.2226978 M13.2230805,3.55271368e-15 C5.92017112,3.55271368e-15 1.42108547e-14,5.92017112 1.42108547e-14,13.2230805 C1.42108547e-14,20.5259899 5.92017112,26.446161 13.2230805,26.446161 C13.336746,26.446161 13.4488806,26.4404203 13.5617806,26.4373587 C14.4163764,26.4159268 15.2503057,26.3145081 16.0562971,26.1384606 C19.081635,25.4775171 21.7185203,23.7821032 23.5788831,21.4402887 C25.3722713,19.1834364 26.4457783,16.3295534 26.4457783,13.2230805 C26.4457783,10.1166076 25.3722713,7.26272464 23.5788831,5.00587228 C21.1566992,1.9571889 17.419517,3.55271368e-15 13.2230805,3.55271368e-15"/><path fill="#E0E9F8" d="M13.2229657,14.5337924 L9.15473769,12.6255906 L13.2229657,6.08312987 L17.2911937,12.6255906 L13.2229657,14.5337924 Z M13.2229657,20.3624954 L9.15473769,13.8200346 L13.2229657,16.4825616 L17.2911937,13.8200346 L13.2229657,20.3624954 Z M13.2229657,2.03442017 C7.0536491,2.03442017 2.03476461,7.05368737 2.03476461,13.2226213 C2.03476461,19.3919379 7.0536491,24.4108223 13.2229657,24.4108223 C19.3918996,24.4108223 24.4111668,19.3919379 24.4111668,13.2226213 C24.4111668,7.05330466 19.3918996,2.03442017 13.2229657,2.03442017 L13.2229657,2.03442017 Z"/></g><path fill="#FFF" fill-rule="nonzero" d="M66.4576468,12.2325321 L65.999855,11 L65.5423532,12.2325321 C65.1567528,13.2715487 64.2405895,14.1485269 63,14.6666667 C64.2405895,15.1848064 65.1567528,16.0617846 65.5423532,17.1008012 L65.999855,18.3333333 L66.4576468,17.1008012 C66.8432472,16.0617846 67.7594105,15.1848064 69,14.6666667 C67.7594105,14.1482532 66.8432472,13.271275 66.4576468,12.2325321 Z"/><path fill="#E0E9F8" d="M75.7425251 37.6757197C72.9086974 34.8919121 69.6588377 29.9716716 59.2652505 33.5981245 58.4572345 33.8799682 57.6747094 34.2536756 56.896994 34.6302688 55.9807615 35.0737157 53.1426052 35.0852588 50.2356713 32.4491065 45.616994 28.2599281 43.810501 25.0990464 37.482004 25.0009301 30.1189579 24.8864612 28.9608016 35.3709502 23.2378357 38.0542367 19.595992 39.7621325 9.98733467 41.4594472 8 42.2160003L79.8831263 42.5945173C79.8831263 42.5945173 77.3157515 39.2215313 75.7425251 37.6757197M269.742525 55.6757197C266.908697 52.8919121 263.658838 47.9716716 253.265251 51.5981245 252.457234 51.8799682 251.674709 52.2536756 250.896994 52.6302688 249.980762 53.0737157 247.142605 53.0852588 244.235671 50.4491065 239.616994 46.2599281 237.810501 43.0990464 231.482004 43.0009301 224.118958 42.8864612 222.960802 53.3709502 217.237836 56.0542367 213.595992 57.7621325 203.987335 59.4594472 202 60.2160003L273.883126 60.5945173C273.883126 60.5945173 271.315752 57.2215313 269.742525 55.6757197"/><g transform="rotate(10 110.355 1281.52)"><path fill="#C5D6F1" d="M16.7874403,2.58346511 C24.6195008,2.58346511 30.9914156,8.95537985 30.9914156,16.7874403 C30.9914156,24.6195008 24.6195008,30.9914156 16.7874403,30.9914156 C8.95504099,30.9914156 2.58346511,24.6195008 2.58346511,16.7874403 C2.58346511,8.95537985 8.95537985,2.58346511 16.7874403,2.58346511 M16.7874403,33.5748807 C26.0586373,33.5748807 33.5748807,26.0589761 33.5748807,16.7874403 C33.5748807,12.3063618 31.8158608,8.23835307 28.954192,5.22792494 C25.8959847,2.00977592 21.5778976,3.55271368e-14 16.7874403,3.55271368e-14 C7.53386409,3.55271368e-14 0.0304973584,7.48710148 0.00135543815,16.7339005 C0.00135543815,16.7518601 4.26325641e-14,16.7694808 4.26325641e-14,16.7874403 C4.26325641e-14,26.0589761 7.5162434,33.5748807 16.7874403,33.5748807"/><path fill="#E0E9F8" d="M18.2232899 15.2812775C18.6231441 15.1030373 18.8606846 14.696067 18.8606846 14.1156007 18.8606846 13.562243 18.6231441 13.1817038 18.2232899 13.0156626 18.0752082 12.9539902 17.9047619 12.9224762 17.7156783 12.9224762L15.7455489 12.9224762 15.7455489 15.3819187 17.7156783 15.3819187C17.9047619 15.3819187 18.0752082 15.3466774 18.2232899 15.2812775M18.2232899 20.3845021C18.8156163 20.2235438 19.1683691 19.7616783 19.1683691 19.072438 19.1683691 18.4397872 18.8156163 17.9904595 18.2232899 17.8328898 18.0694476 17.7915489 17.9000179 17.7698619 17.7156783 17.7698619L15.7455489 17.7698619 15.7455489 20.4292316 17.7156783 20.44753C17.899679 20.44753 18.0694476 20.425843 18.2232899 20.3845021"/><path fill="#E0E9F8" d="M15.2831073,8.70032028 L15.2831073,10.3346398 L16.2081938,10.3346398 L16.2081938,8.70032028 L18.2233915,8.70032028 L18.2233915,10.3468388 C20.2307954,10.4776385 21.4872866,11.6938054 21.4872866,13.5368625 C21.4872866,14.8573981 20.8302379,15.9248056 19.7967163,16.2870465 C21.0396531,16.6130293 21.8081866,17.8607101 21.8085254,19.4892691 C21.8085254,21.6007029 20.4195402,22.9408923 18.2233915,23.0123917 L18.2233915,24.8744248 L16.2081938,24.8744248 L16.2081938,23.0157803 L15.2831073,23.0157803 L15.2831073,24.8744248 L13.2682485,24.8744248 L13.2682485,23.0157803 L11.766423,23.0157803 L11.766423,20.4292654 L13.2031875,20.4292654 L13.2031875,12.9225101 L11.766423,12.9225101 L11.766423,10.3346398 L13.2682485,10.3346398 L13.2682485,8.70032028 L15.2831073,8.70032028 Z M2.58332957,16.787542 C2.58332957,24.6196025 8.95490545,30.9915172 16.7873048,30.9915172 C24.6197041,30.9915172 30.99128,24.6196025 30.99128,16.787542 C30.99128,8.95548151 24.6197041,2.58356677 16.7873048,2.58356677 C8.95524431,2.58356677 2.58332957,8.95548151 2.58332957,16.787542 L2.58332957,16.787542 Z"/><path fill="#FFF" d="M15.7453795,17.7697602 L17.7155088,17.7697602 C17.8998484,17.7697602 18.0692782,17.7914473 18.2231204,17.8327881 C18.8157858,17.9903578 19.1685385,18.4396856 19.1685385,19.0723363 C19.1685385,19.7615766 18.8157858,20.2234422 18.2231204,20.3844004 C18.0692782,20.4257413 17.8995096,20.4474283 17.7155088,20.4474283 L15.7453795,20.4291299 L15.7453795,17.7697602 Z M15.7453795,12.9223746 L17.7155088,12.9223746 C17.9045925,12.9223746 18.0753777,12.9538885 18.2231204,13.0155609 C18.6229747,13.1816021 18.8605152,13.5621414 18.8605152,14.115499 C18.8605152,14.6959654 18.6229747,15.1029357 18.2231204,15.2811758 C18.0753777,15.3465757 17.9045925,15.3818171 17.7155088,15.3818171 L15.7453795,15.3818171 L15.7453795,12.9223746 Z M13.2679774,10.3345043 L11.7664908,10.3345043 L11.7664908,12.9223746 L13.2032552,12.9223746 L13.2032552,20.4291299 L11.7664908,20.4291299 L11.7664908,23.0156447 L13.2679774,23.0156447 L13.2679774,24.8742893 L15.2831751,24.8742893 L15.2831751,23.0156447 L16.2082616,23.0156447 L16.2082616,24.8742893 L18.2231204,24.8742893 L18.2231204,23.0122561 C20.4196079,22.9407568 21.8085932,21.6005673 21.8085932,19.4891335 C21.8082543,17.8605746 21.0397209,16.6128938 19.7967841,16.2869109 C20.8303057,15.9246701 21.4870155,14.8572625 21.4870155,13.5367269 C21.4870155,11.6936699 20.2305243,10.477503 18.2231204,10.3467032 L18.2231204,8.70018473 L16.2082616,8.70018473 L16.2082616,10.3345043 L15.2831751,10.3345043 L15.2831751,8.70018473 L13.2679774,8.70018473 L13.2679774,10.3345043 Z"/></g><path fill="#FFF" fill-rule="nonzero" d="M224.457647 29.2325321 223.999855 28 223.542353 29.2325321C223.156753 30.2715487 222.24059 31.1485269 221 31.6666667 222.24059 32.1848064 223.156753 33.0617846 223.542353 34.1008012L223.999855 35.3333333 224.457647 34.1008012C224.843247 33.0617846 225.75941 32.1848064 227 31.6666667 225.75941 31.1482532 224.843247 30.271275 224.457647 29.2325321ZM257.493817 2.03928038 256.766436-1.77635684e-15 256.039517 2.03928038C255.426841 3.75838061 253.971159 5.20938091 252 6.06666667L252 6.06666667 252 6.06666667C253.971159 6.92395242 255.426841 8.37495272 256.039517 10.094053L256.766436 12.1333333 257.493817 10.094053C258.106493 8.37495272 259.562174 6.92395242 261.533333 6.06666667L261.533333 6.06666667 261.533333 6.06666667C259.562174 5.20892804 258.106493 3.75792774 257.493817 2.03928038Z"/></g></svg>